<mxfile host="app.diagrams.net" agent="Mozilla/5.0 (X11; Linux x86_64; rv:142.0) Gecko/20100101 Firefox/142.0" version="28.2.0">
  <diagram name="Страница — 1" id="gMLo4ADSwapW32EeL3S5">
    <mxGraphModel dx="2731" dy="2331" grid="1" gridSize="10" guides="1" tooltips="1" connect="1" arrows="1" fold="1" page="1" pageScale="1" pageWidth="827" pageHeight="1169" math="0" shadow="0">
      <root>
        <mxCell id="0" />
        <mxCell id="1" parent="0" />
        <mxCell id="KZ6kUOGwz-yshnV4Vft--21" style="edgeStyle=orthogonalEdgeStyle;rounded=0;orthogonalLoop=1;jettySize=auto;html=1;exitX=0.5;exitY=1;exitDx=0;exitDy=0;entryX=0.5;entryY=0;entryDx=0;entryDy=0;" parent="1" source="KZ6kUOGwz-yshnV4Vft--2" target="KZ6kUOGwz-yshnV4Vft--24" edge="1">
          <mxGeometry relative="1" as="geometry">
            <mxPoint x="400" y="690" as="targetPoint" />
          </mxGeometry>
        </mxCell>
        <mxCell id="KZ6kUOGwz-yshnV4Vft--2" value="Выбор параметров&lt;br&gt;(Форма протокола, подписант, ...)" style="rounded=0;whiteSpace=wrap;html=1;" parent="1" vertex="1">
          <mxGeometry x="286" y="480" width="228" height="70" as="geometry" />
        </mxCell>
        <mxCell id="KZ6kUOGwz-yshnV4Vft--4" value="" style="verticalLabelPosition=bottom;verticalAlign=top;html=1;shape=mxgraph.flowchart.on-page_reference;" parent="1" vertex="1">
          <mxGeometry x="372.5" y="10" width="100" height="100" as="geometry" />
        </mxCell>
        <mxCell id="KZ6kUOGwz-yshnV4Vft--14" style="edgeStyle=orthogonalEdgeStyle;rounded=0;orthogonalLoop=1;jettySize=auto;html=1;exitX=1;exitY=0.5;exitDx=0;exitDy=0;exitPerimeter=0;" parent="1" source="KZ6kUOGwz-yshnV4Vft--6" edge="1">
          <mxGeometry relative="1" as="geometry">
            <mxPoint x="400" y="370" as="targetPoint" />
          </mxGeometry>
        </mxCell>
        <mxCell id="KZ6kUOGwz-yshnV4Vft--6" value="psql" style="strokeWidth=2;html=1;shape=mxgraph.flowchart.database;whiteSpace=wrap;" parent="1" vertex="1">
          <mxGeometry x="560" y="130" width="89.75" height="140" as="geometry" />
        </mxCell>
        <mxCell id="KZ6kUOGwz-yshnV4Vft--7" value="txt, svg, excl&lt;br&gt;&lt;br&gt;&lt;div&gt;result_docnum&lt;/div&gt;&lt;div&gt;(Номер свидетельства)&lt;/div&gt;" style="shape=note;whiteSpace=wrap;html=1;backgroundOutline=1;darkOpacity=0.05;" parent="1" vertex="1">
          <mxGeometry x="150" y="110" width="120.25" height="160" as="geometry" />
        </mxCell>
        <mxCell id="KZ6kUOGwz-yshnV4Vft--9" value="" style="aspect=fixed;sketch=0;html=1;dashed=0;whitespace=wrap;verticalLabelPosition=bottom;verticalAlign=top;fillColor=#2875E2;strokeColor=#ffffff;points=[[0.005,0.63,0],[0.1,0.2,0],[0.9,0.2,0],[0.5,0,0],[0.995,0.63,0],[0.72,0.99,0],[0.5,1,0],[0.28,0.99,0]];shape=mxgraph.kubernetes.icon2;kubernetesLabel=1;prIcon=api" parent="1" vertex="1">
          <mxGeometry x="360" y="140" width="125" height="120" as="geometry" />
        </mxCell>
        <mxCell id="KZ6kUOGwz-yshnV4Vft--10" value="" style="endArrow=classic;html=1;rounded=0;entryX=0;entryY=0.497;entryDx=0;entryDy=0;entryPerimeter=0;exitX=1.006;exitY=0.554;exitDx=0;exitDy=0;exitPerimeter=0;" parent="1" source="KZ6kUOGwz-yshnV4Vft--7" target="KZ6kUOGwz-yshnV4Vft--9" edge="1">
          <mxGeometry width="50" height="50" relative="1" as="geometry">
            <mxPoint x="269.75" y="199.66" as="sourcePoint" />
            <mxPoint x="340.25" y="199.66" as="targetPoint" />
          </mxGeometry>
        </mxCell>
        <mxCell id="KZ6kUOGwz-yshnV4Vft--11" value="" style="endArrow=classic;html=1;rounded=0;exitX=0.995;exitY=0.495;exitDx=0;exitDy=0;exitPerimeter=0;entryX=0;entryY=0.5;entryDx=0;entryDy=0;entryPerimeter=0;" parent="1" source="KZ6kUOGwz-yshnV4Vft--9" target="KZ6kUOGwz-yshnV4Vft--6" edge="1">
          <mxGeometry width="50" height="50" relative="1" as="geometry">
            <mxPoint x="500" y="200" as="sourcePoint" />
            <mxPoint x="520" y="200" as="targetPoint" />
          </mxGeometry>
        </mxCell>
        <mxCell id="KZ6kUOGwz-yshnV4Vft--12" style="edgeStyle=orthogonalEdgeStyle;rounded=0;orthogonalLoop=1;jettySize=auto;html=1;entryX=0.5;entryY=0;entryDx=0;entryDy=0;entryPerimeter=0;" parent="1" source="KZ6kUOGwz-yshnV4Vft--4" target="KZ6kUOGwz-yshnV4Vft--7" edge="1">
          <mxGeometry relative="1" as="geometry" />
        </mxCell>
        <mxCell id="KZ6kUOGwz-yshnV4Vft--15" value="СИ" style="swimlane;fontStyle=0;childLayout=stackLayout;horizontal=1;startSize=30;horizontalStack=0;resizeParent=1;resizeParentMax=0;resizeLast=0;collapsible=1;marginBottom=0;whiteSpace=wrap;html=1;" parent="1" vertex="1">
          <mxGeometry x="330" y="330" width="140" height="120" as="geometry" />
        </mxCell>
        <mxCell id="KZ6kUOGwz-yshnV4Vft--16" value="Item 1" style="text;strokeColor=none;fillColor=none;align=left;verticalAlign=middle;spacingLeft=4;spacingRight=4;overflow=hidden;points=[[0,0.5],[1,0.5]];portConstraint=eastwest;rotatable=0;whiteSpace=wrap;html=1;" parent="KZ6kUOGwz-yshnV4Vft--15" vertex="1">
          <mxGeometry y="30" width="140" height="30" as="geometry" />
        </mxCell>
        <mxCell id="KZ6kUOGwz-yshnV4Vft--17" value="Item 2" style="text;strokeColor=none;fillColor=none;align=left;verticalAlign=middle;spacingLeft=4;spacingRight=4;overflow=hidden;points=[[0,0.5],[1,0.5]];portConstraint=eastwest;rotatable=0;whiteSpace=wrap;html=1;" parent="KZ6kUOGwz-yshnV4Vft--15" vertex="1">
          <mxGeometry y="60" width="140" height="30" as="geometry" />
        </mxCell>
        <mxCell id="KZ6kUOGwz-yshnV4Vft--18" value="Item 3" style="text;strokeColor=none;fillColor=none;align=left;verticalAlign=middle;spacingLeft=4;spacingRight=4;overflow=hidden;points=[[0,0.5],[1,0.5]];portConstraint=eastwest;rotatable=0;whiteSpace=wrap;html=1;" parent="KZ6kUOGwz-yshnV4Vft--15" vertex="1">
          <mxGeometry y="90" width="140" height="30" as="geometry" />
        </mxCell>
        <mxCell id="KZ6kUOGwz-yshnV4Vft--19" style="edgeStyle=orthogonalEdgeStyle;rounded=0;orthogonalLoop=1;jettySize=auto;html=1;entryX=0.5;entryY=0;entryDx=0;entryDy=0;exitX=0.505;exitY=1.033;exitDx=0;exitDy=0;exitPerimeter=0;" parent="1" source="KZ6kUOGwz-yshnV4Vft--18" target="KZ6kUOGwz-yshnV4Vft--2" edge="1">
          <mxGeometry relative="1" as="geometry" />
        </mxCell>
        <mxCell id="KZ6kUOGwz-yshnV4Vft--20" value="Запуск" style="text;html=1;align=center;verticalAlign=middle;whiteSpace=wrap;rounded=0;" parent="1" vertex="1">
          <mxGeometry x="392.5" y="45" width="60" height="30" as="geometry" />
        </mxCell>
        <mxCell id="KZ6kUOGwz-yshnV4Vft--27" style="edgeStyle=orthogonalEdgeStyle;rounded=0;orthogonalLoop=1;jettySize=auto;html=1;exitX=0.5;exitY=1;exitDx=0;exitDy=0;entryX=0.5;entryY=0;entryDx=0;entryDy=0;" parent="1" source="KZ6kUOGwz-yshnV4Vft--24" target="KZ6kUOGwz-yshnV4Vft--28" edge="1">
          <mxGeometry relative="1" as="geometry">
            <mxPoint x="400" y="760" as="targetPoint" />
          </mxGeometry>
        </mxCell>
        <mxCell id="KZ6kUOGwz-yshnV4Vft--24" value="Бизнес логика&lt;br&gt;(расчет погрешностей, рандомизация, вычисления)" style="rounded=0;whiteSpace=wrap;html=1;" parent="1" vertex="1">
          <mxGeometry x="286" y="600" width="228" height="70" as="geometry" />
        </mxCell>
        <mxCell id="KZ6kUOGwz-yshnV4Vft--26" value="" style="endArrow=classic;html=1;rounded=0;exitX=1;exitY=0.5;exitDx=0;exitDy=0;" parent="1" source="KZ6kUOGwz-yshnV4Vft--24" edge="1">
          <mxGeometry width="50" height="50" relative="1" as="geometry">
            <mxPoint x="579.87" y="660" as="sourcePoint" />
            <mxPoint x="650" y="160" as="targetPoint" />
            <Array as="points">
              <mxPoint x="760" y="635" />
              <mxPoint x="760" y="160" />
            </Array>
          </mxGeometry>
        </mxCell>
        <mxCell id="KZ6kUOGwz-yshnV4Vft--28" value="Генерация протоколов" style="rounded=0;whiteSpace=wrap;html=1;" parent="1" vertex="1">
          <mxGeometry x="290" y="720" width="220" height="60" as="geometry" />
        </mxCell>
        <mxCell id="Botwioph3PDkmJ7A7z9F-7" style="edgeStyle=orthogonalEdgeStyle;rounded=0;orthogonalLoop=1;jettySize=auto;html=1;entryX=0.5;entryY=0;entryDx=0;entryDy=0;" edge="1" parent="1" source="Botwioph3PDkmJ7A7z9F-1" target="Botwioph3PDkmJ7A7z9F-6">
          <mxGeometry relative="1" as="geometry" />
        </mxCell>
        <mxCell id="Botwioph3PDkmJ7A7z9F-9" style="edgeStyle=orthogonalEdgeStyle;rounded=0;orthogonalLoop=1;jettySize=auto;html=1;entryX=0.5;entryY=0;entryDx=0;entryDy=0;" edge="1" parent="1" source="Botwioph3PDkmJ7A7z9F-1" target="Botwioph3PDkmJ7A7z9F-8">
          <mxGeometry relative="1" as="geometry" />
        </mxCell>
        <mxCell id="Botwioph3PDkmJ7A7z9F-1" value="" style="image;aspect=fixed;html=1;points=[];align=center;fontSize=12;image=img/lib/azure2/databases/Azure_Database_PostgreSQL_Server.svg;" vertex="1" parent="1">
          <mxGeometry x="1014.5" y="1910" width="145.5" height="194" as="geometry" />
        </mxCell>
        <UserObject label="&lt;div style=&quot;color: #f8f8f2;background-color: #212121;font-family: IBMPlexMono, monospace, &#39;Droid Sans Fallback&#39;, &#39;Droid Sans Mono&#39;, &#39;monospace&#39;, monospace;font-weight: normal;font-size: 12px;line-height: 18px;white-space: pre;&quot;&gt;&lt;div&gt;&lt;span style=&quot;color: #dcdcdc;&quot;&gt;{&lt;/span&gt;&lt;/div&gt;&lt;div&gt;&lt;span style=&quot;color: #f8f8f2;&quot;&gt;    &lt;/span&gt;&lt;span style=&quot;color: #9cdcfe;&quot;&gt;&quot;result&quot;&lt;/span&gt;&lt;span style=&quot;color: #dcdcdc;&quot;&gt;:&lt;/span&gt;&lt;span style=&quot;color: #f8f8f2;&quot;&gt; &lt;/span&gt;&lt;span style=&quot;color: #dcdcdc;&quot;&gt;{&lt;/span&gt;&lt;/div&gt;&lt;div&gt;&lt;span style=&quot;color: #f8f8f2;&quot;&gt;        &lt;/span&gt;&lt;span style=&quot;color: #9cdcfe;&quot;&gt;&quot;miInfo&quot;&lt;/span&gt;&lt;span style=&quot;color: #dcdcdc;&quot;&gt;:&lt;/span&gt;&lt;span style=&quot;color: #f8f8f2;&quot;&gt; &lt;/span&gt;&lt;span style=&quot;color: #dcdcdc;&quot;&gt;{&lt;/span&gt;&lt;/div&gt;&lt;div&gt;&lt;span style=&quot;color: #f8f8f2;&quot;&gt;            &lt;/span&gt;&lt;span style=&quot;color: #9cdcfe;&quot;&gt;&quot;singleMI&quot;&lt;/span&gt;&lt;span style=&quot;color: #dcdcdc;&quot;&gt;:&lt;/span&gt;&lt;span style=&quot;color: #f8f8f2;&quot;&gt; &lt;/span&gt;&lt;span style=&quot;color: #dcdcdc;&quot;&gt;{&lt;/span&gt;&lt;/div&gt;&lt;div&gt;&lt;span style=&quot;color: #f8f8f2;&quot;&gt;                &lt;/span&gt;&lt;span style=&quot;color: #9cdcfe;&quot;&gt;&quot;mitypeNumber&quot;&lt;/span&gt;&lt;span style=&quot;color: #dcdcdc;&quot;&gt;:&lt;/span&gt;&lt;span style=&quot;color: #f8f8f2;&quot;&gt; &lt;/span&gt;&lt;span style=&quot;color: #ce9178;&quot;&gt;&quot;44786-10&quot;&lt;/span&gt;&lt;span style=&quot;color: #dcdcdc;&quot;&gt;,&lt;/span&gt;&lt;/div&gt;&lt;div&gt;&lt;span style=&quot;color: #f8f8f2;&quot;&gt;                &lt;/span&gt;&lt;span style=&quot;color: #9cdcfe;&quot;&gt;&quot;mitypeURL&quot;&lt;/span&gt;&lt;span style=&quot;color: #dcdcdc;&quot;&gt;:&lt;/span&gt;&lt;span style=&quot;color: #f8f8f2;&quot;&gt; &lt;/span&gt;&lt;span style=&quot;color: #ce9178;&quot;&gt;&quot;https://fgis.gost.ru/fundmetrology/cm/mits/e2bff0ac-0498-22c6-a046-7e0425cb8bdc&quot;&lt;/span&gt;&lt;span style=&quot;color: #dcdcdc;&quot;&gt;,&lt;/span&gt;&lt;/div&gt;&lt;div&gt;&lt;span style=&quot;color: #f8f8f2;&quot;&gt;                &lt;/span&gt;&lt;span style=&quot;color: #9cdcfe;&quot;&gt;&quot;mitypeType&quot;&lt;/span&gt;&lt;span style=&quot;color: #dcdcdc;&quot;&gt;:&lt;/span&gt;&lt;span style=&quot;color: #f8f8f2;&quot;&gt; &lt;/span&gt;&lt;span style=&quot;color: #ce9178;&quot;&gt;&quot;TS&quot;&lt;/span&gt;&lt;span style=&quot;color: #dcdcdc;&quot;&gt;,&lt;/span&gt;&lt;/div&gt;&lt;div&gt;&lt;span style=&quot;color: #f8f8f2;&quot;&gt;                &lt;/span&gt;&lt;span style=&quot;color: #9cdcfe;&quot;&gt;&quot;mitypeTitle&quot;&lt;/span&gt;&lt;span style=&quot;color: #dcdcdc;&quot;&gt;:&lt;/span&gt;&lt;span style=&quot;color: #f8f8f2;&quot;&gt; &lt;/span&gt;&lt;span style=&quot;color: #ce9178;&quot;&gt;&quot;Термопреобразователи сопротивления&quot;&lt;/span&gt;&lt;span style=&quot;color: #dcdcdc;&quot;&gt;,&lt;/span&gt;&lt;/div&gt;&lt;div&gt;&lt;span style=&quot;color: #f8f8f2;&quot;&gt;                &lt;/span&gt;&lt;span style=&quot;color: #9cdcfe;&quot;&gt;&quot;manufactureNum&quot;&lt;/span&gt;&lt;span style=&quot;color: #dcdcdc;&quot;&gt;:&lt;/span&gt;&lt;span style=&quot;color: #f8f8f2;&quot;&gt; &lt;/span&gt;&lt;span style=&quot;color: #ce9178;&quot;&gt;&quot;119230216-01&quot;&lt;/span&gt;&lt;span style=&quot;color: #dcdcdc;&quot;&gt;,&lt;/span&gt;&lt;/div&gt;&lt;div&gt;&lt;span style=&quot;color: #f8f8f2;&quot;&gt;                &lt;/span&gt;&lt;span style=&quot;color: #9cdcfe;&quot;&gt;&quot;manufactureYear&quot;&lt;/span&gt;&lt;span style=&quot;color: #dcdcdc;&quot;&gt;:&lt;/span&gt;&lt;span style=&quot;color: #f8f8f2;&quot;&gt; &lt;/span&gt;&lt;span style=&quot;color: #b5cea8;&quot;&gt;2016&lt;/span&gt;&lt;span style=&quot;color: #dcdcdc;&quot;&gt;,&lt;/span&gt;&lt;/div&gt;&lt;div&gt;&lt;span style=&quot;color: #f8f8f2;&quot;&gt;                &lt;/span&gt;&lt;span style=&quot;color: #9cdcfe;&quot;&gt;&quot;modification&quot;&lt;/span&gt;&lt;span style=&quot;color: #dcdcdc;&quot;&gt;:&lt;/span&gt;&lt;span style=&quot;color: #f8f8f2;&quot;&gt; &lt;/span&gt;&lt;span style=&quot;color: #ce9178;&quot;&gt;&quot;TS-CVO-RTD&quot;&lt;/span&gt;&lt;/div&gt;&lt;div&gt;&lt;span style=&quot;color: #f8f8f2;&quot;&gt;            &lt;/span&gt;&lt;span style=&quot;color: #dcdcdc;&quot;&gt;}&lt;/span&gt;&lt;/div&gt;&lt;div&gt;&lt;span style=&quot;color: #f8f8f2;&quot;&gt;        &lt;/span&gt;&lt;span style=&quot;color: #dcdcdc;&quot;&gt;},&lt;/span&gt;&lt;/div&gt;&lt;div&gt;&lt;span style=&quot;color: #f8f8f2;&quot;&gt;        &lt;/span&gt;&lt;span style=&quot;color: #9cdcfe;&quot;&gt;&quot;vriInfo&quot;&lt;/span&gt;&lt;span style=&quot;color: #dcdcdc;&quot;&gt;:&lt;/span&gt;&lt;span style=&quot;color: #f8f8f2;&quot;&gt; &lt;/span&gt;&lt;span style=&quot;color: #dcdcdc;&quot;&gt;{&lt;/span&gt;&lt;/div&gt;&lt;div&gt;&lt;span style=&quot;color: #f8f8f2;&quot;&gt;            &lt;/span&gt;&lt;span style=&quot;color: #9cdcfe;&quot;&gt;&quot;organization&quot;&lt;/span&gt;&lt;span style=&quot;color: #dcdcdc;&quot;&gt;:&lt;/span&gt;&lt;span style=&quot;color: #f8f8f2;&quot;&gt; &lt;/span&gt;&lt;span style=&quot;color: #ce9178;&quot;&gt;&quot;ОБЩЕСТВО С ОГРАНИЧЕННОЙ ОТВЕТСТВЕННОСТЬЮ \&quot;МНОГОЦЕЛЕВАЯ КОМПАНИЯ. АВТОМАТИЗАЦИЯ. ИССЛЕДОВАНИЯ. РАЗРАБОТКИ\&quot;(ООО \&quot;МКАИР\&quot;)&quot;&lt;/span&gt;&lt;span style=&quot;color: #dcdcdc;&quot;&gt;,&lt;/span&gt;&lt;/div&gt;&lt;div&gt;&lt;span style=&quot;color: #f8f8f2;&quot;&gt;            &lt;/span&gt;&lt;span style=&quot;color: #9cdcfe;&quot;&gt;&quot;signCipher&quot;&lt;/span&gt;&lt;span style=&quot;color: #dcdcdc;&quot;&gt;:&lt;/span&gt;&lt;span style=&quot;color: #f8f8f2;&quot;&gt; &lt;/span&gt;&lt;span style=&quot;color: #ce9178;&quot;&gt;&quot;ЕЖБ&quot;&lt;/span&gt;&lt;span style=&quot;color: #dcdcdc;&quot;&gt;,&lt;/span&gt;&lt;/div&gt;&lt;div&gt;&lt;span style=&quot;color: #f8f8f2;&quot;&gt;            &lt;/span&gt;&lt;span style=&quot;color: #9cdcfe;&quot;&gt;&quot;miOwner&quot;&lt;/span&gt;&lt;span style=&quot;color: #dcdcdc;&quot;&gt;:&lt;/span&gt;&lt;span style=&quot;color: #f8f8f2;&quot;&gt; &lt;/span&gt;&lt;span style=&quot;color: #ce9178;&quot;&gt;&quot;ООО \&quot;РИ-ИНВЕСТ\&quot;&quot;&lt;/span&gt;&lt;span style=&quot;color: #dcdcdc;&quot;&gt;,&lt;/span&gt;&lt;/div&gt;&lt;div&gt;&lt;span style=&quot;color: #f8f8f2;&quot;&gt;            &lt;/span&gt;&lt;span style=&quot;color: #9cdcfe;&quot;&gt;&quot;vrfDate&quot;&lt;/span&gt;&lt;span style=&quot;color: #dcdcdc;&quot;&gt;:&lt;/span&gt;&lt;span style=&quot;color: #f8f8f2;&quot;&gt; &lt;/span&gt;&lt;span style=&quot;color: #ce9178;&quot;&gt;&quot;05.02.2025&quot;&lt;/span&gt;&lt;span style=&quot;color: #dcdcdc;&quot;&gt;,&lt;/span&gt;&lt;/div&gt;&lt;div&gt;&lt;span style=&quot;color: #f8f8f2;&quot;&gt;            &lt;/span&gt;&lt;span style=&quot;color: #9cdcfe;&quot;&gt;&quot;validDate&quot;&lt;/span&gt;&lt;span style=&quot;color: #dcdcdc;&quot;&gt;:&lt;/span&gt;&lt;span style=&quot;color: #f8f8f2;&quot;&gt; &lt;/span&gt;&lt;span style=&quot;color: #ce9178;&quot;&gt;&quot;04.02.2027&quot;&lt;/span&gt;&lt;span style=&quot;color: #dcdcdc;&quot;&gt;,&lt;/span&gt;&lt;/div&gt;&lt;div&gt;&lt;span style=&quot;color: #f8f8f2;&quot;&gt;            &lt;/span&gt;&lt;span style=&quot;color: #9cdcfe;&quot;&gt;&quot;vriType&quot;&lt;/span&gt;&lt;span style=&quot;color: #dcdcdc;&quot;&gt;:&lt;/span&gt;&lt;span style=&quot;color: #f8f8f2;&quot;&gt; &lt;/span&gt;&lt;span style=&quot;color: #ce9178;&quot;&gt;&quot;2&quot;&lt;/span&gt;&lt;span style=&quot;color: #dcdcdc;&quot;&gt;,&lt;/span&gt;&lt;/div&gt;&lt;div&gt;&lt;span style=&quot;color: #f8f8f2;&quot;&gt;            &lt;/span&gt;&lt;span style=&quot;color: #9cdcfe;&quot;&gt;&quot;docTitle&quot;&lt;/span&gt;&lt;span style=&quot;color: #dcdcdc;&quot;&gt;:&lt;/span&gt;&lt;span style=&quot;color: #f8f8f2;&quot;&gt; &lt;/span&gt;&lt;span style=&quot;color: #ce9178;&quot;&gt;&quot;ГОСТ 8.461-2009&quot;&lt;/span&gt;&lt;span style=&quot;color: #dcdcdc;&quot;&gt;,&lt;/span&gt;&lt;/div&gt;&lt;div&gt;&lt;span style=&quot;color: #f8f8f2;&quot;&gt;            &lt;/span&gt;&lt;span style=&quot;color: #9cdcfe;&quot;&gt;&quot;applicable&quot;&lt;/span&gt;&lt;span style=&quot;color: #dcdcdc;&quot;&gt;:&lt;/span&gt;&lt;span style=&quot;color: #f8f8f2;&quot;&gt; &lt;/span&gt;&lt;span style=&quot;color: #dcdcdc;&quot;&gt;{&lt;/span&gt;&lt;/div&gt;&lt;div&gt;&lt;span style=&quot;color: #f8f8f2;&quot;&gt;                &lt;/span&gt;&lt;span style=&quot;color: #9cdcfe;&quot;&gt;&quot;certNum&quot;&lt;/span&gt;&lt;span style=&quot;color: #dcdcdc;&quot;&gt;:&lt;/span&gt;&lt;span style=&quot;color: #f8f8f2;&quot;&gt; &lt;/span&gt;&lt;span style=&quot;color: #ce9178;&quot;&gt;&quot;С-ЕЖБ/05-02-2025/411797171&quot;&lt;/span&gt;&lt;span style=&quot;color: #dcdcdc;&quot;&gt;,&lt;/span&gt;&lt;/div&gt;&lt;div&gt;&lt;span style=&quot;color: #f8f8f2;&quot;&gt;                &lt;/span&gt;&lt;span style=&quot;color: #9cdcfe;&quot;&gt;&quot;signPass&quot;&lt;/span&gt;&lt;span style=&quot;color: #dcdcdc;&quot;&gt;:&lt;/span&gt;&lt;span style=&quot;color: #f8f8f2;&quot;&gt; &lt;/span&gt;&lt;span style=&quot;color: #ce9178;&quot;&gt;false&lt;/span&gt;&lt;span style=&quot;color: #dcdcdc;&quot;&gt;,&lt;/span&gt;&lt;/div&gt;&lt;div&gt;&lt;span style=&quot;color: #f8f8f2;&quot;&gt;                &lt;/span&gt;&lt;span style=&quot;color: #9cdcfe;&quot;&gt;&quot;signMi&quot;&lt;/span&gt;&lt;span style=&quot;color: #dcdcdc;&quot;&gt;:&lt;/span&gt;&lt;span style=&quot;color: #f8f8f2;&quot;&gt; &lt;/span&gt;&lt;span style=&quot;color: #ce9178;&quot;&gt;false&lt;/span&gt;&lt;/div&gt;&lt;div&gt;&lt;span style=&quot;color: #f8f8f2;&quot;&gt;            &lt;/span&gt;&lt;span style=&quot;color: #dcdcdc;&quot;&gt;}&lt;/span&gt;&lt;/div&gt;&lt;div&gt;&lt;span style=&quot;color: #f8f8f2;&quot;&gt;        &lt;/span&gt;&lt;span style=&quot;color: #dcdcdc;&quot;&gt;},&lt;/span&gt;&lt;/div&gt;&lt;div&gt;&lt;span style=&quot;color: #f8f8f2;&quot;&gt;        &lt;/span&gt;&lt;span style=&quot;color: #9cdcfe;&quot;&gt;&quot;means&quot;&lt;/span&gt;&lt;span style=&quot;color: #dcdcdc;&quot;&gt;:&lt;/span&gt;&lt;span style=&quot;color: #f8f8f2;&quot;&gt; &lt;/span&gt;&lt;span style=&quot;color: #dcdcdc;&quot;&gt;{&lt;/span&gt;&lt;/div&gt;&lt;div&gt;&lt;span style=&quot;color: #f8f8f2;&quot;&gt;            &lt;/span&gt;&lt;span style=&quot;color: #9cdcfe;&quot;&gt;&quot;mieta&quot;&lt;/span&gt;&lt;span style=&quot;color: #dcdcdc;&quot;&gt;:&lt;/span&gt;&lt;span style=&quot;color: #f8f8f2;&quot;&gt; &lt;/span&gt;&lt;span style=&quot;color: #dcdcdc;&quot;&gt;[&lt;/span&gt;&lt;/div&gt;&lt;div&gt;&lt;span style=&quot;color: #f8f8f2;&quot;&gt;                &lt;/span&gt;&lt;span style=&quot;color: #dcdcdc;&quot;&gt;{&lt;/span&gt;&lt;/div&gt;&lt;div&gt;&lt;span style=&quot;color: #f8f8f2;&quot;&gt;                    &lt;/span&gt;&lt;span style=&quot;color: #9cdcfe;&quot;&gt;&quot;regNumber&quot;&lt;/span&gt;&lt;span style=&quot;color: #dcdcdc;&quot;&gt;:&lt;/span&gt;&lt;span style=&quot;color: #f8f8f2;&quot;&gt; &lt;/span&gt;&lt;span style=&quot;color: #ce9178;&quot;&gt;&quot;65779.16.4Р.00169310&quot;&lt;/span&gt;&lt;span style=&quot;color: #dcdcdc;&quot;&gt;,&lt;/span&gt;&lt;/div&gt;&lt;div&gt;&lt;span style=&quot;color: #f8f8f2;&quot;&gt;                    &lt;/span&gt;&lt;span style=&quot;color: #9cdcfe;&quot;&gt;&quot;mietaURL&quot;&lt;/span&gt;&lt;span style=&quot;color: #dcdcdc;&quot;&gt;:&lt;/span&gt;&lt;span style=&quot;color: #f8f8f2;&quot;&gt; &lt;/span&gt;&lt;span style=&quot;color: #ce9178;&quot;&gt;&quot;https://fgis.gost.ru/fundmetrology/cm/etalons/169310&quot;&lt;/span&gt;&lt;span style=&quot;color: #dcdcdc;&quot;&gt;,&lt;/span&gt;&lt;/div&gt;&lt;div&gt;&lt;span style=&quot;color: #f8f8f2;&quot;&gt;                    &lt;/span&gt;&lt;span style=&quot;color: #9cdcfe;&quot;&gt;&quot;mitypeNumber&quot;&lt;/span&gt;&lt;span style=&quot;color: #dcdcdc;&quot;&gt;:&lt;/span&gt;&lt;span style=&quot;color: #f8f8f2;&quot;&gt; &lt;/span&gt;&lt;span style=&quot;color: #ce9178;&quot;&gt;&quot;65779-16&quot;&lt;/span&gt;&lt;span style=&quot;color: #dcdcdc;&quot;&gt;,&lt;/span&gt;&lt;/div&gt;&lt;div&gt;&lt;span style=&quot;color: #f8f8f2;&quot;&gt;                    &lt;/span&gt;&lt;span style=&quot;color: #9cdcfe;&quot;&gt;&quot;mitypeURL&quot;&lt;/span&gt;&lt;span style=&quot;color: #dcdcdc;&quot;&gt;:&lt;/span&gt;&lt;span style=&quot;color: #f8f8f2;&quot;&gt; &lt;/span&gt;&lt;span style=&quot;color: #ce9178;&quot;&gt;&quot;https://fgis.gost.ru/fundmetrology/cm/mits/d8ff9345-917b-3bb1-04e1-67e7c4b3ce52&quot;&lt;/span&gt;&lt;span style=&quot;color: #dcdcdc;&quot;&gt;,&lt;/span&gt;&lt;/div&gt;&lt;div&gt;&lt;span style=&quot;color: #f8f8f2;&quot;&gt;                    &lt;/span&gt;&lt;span style=&quot;color: #9cdcfe;&quot;&gt;&quot;mitypeTitle&quot;&lt;/span&gt;&lt;span style=&quot;color: #dcdcdc;&quot;&gt;:&lt;/span&gt;&lt;span style=&quot;color: #f8f8f2;&quot;&gt; &lt;/span&gt;&lt;span style=&quot;color: #ce9178;&quot;&gt;&quot;Калибраторы температуры&quot;&lt;/span&gt;&lt;span style=&quot;color: #dcdcdc;&quot;&gt;,&lt;/span&gt;&lt;/div&gt;&lt;div&gt;&lt;span style=&quot;color: #f8f8f2;&quot;&gt;                    &lt;/span&gt;&lt;span style=&quot;color: #9cdcfe;&quot;&gt;&quot;notation&quot;&lt;/span&gt;&lt;span style=&quot;color: #dcdcdc;&quot;&gt;:&lt;/span&gt;&lt;span style=&quot;color: #f8f8f2;&quot;&gt; &lt;/span&gt;&lt;span style=&quot;color: #ce9178;&quot;&gt;&quot;КТ-5&quot;&lt;/span&gt;&lt;span style=&quot;color: #dcdcdc;&quot;&gt;,&lt;/span&gt;&lt;/div&gt;&lt;div&gt;&lt;span style=&quot;color: #f8f8f2;&quot;&gt;                    &lt;/span&gt;&lt;span style=&quot;color: #9cdcfe;&quot;&gt;&quot;modification&quot;&lt;/span&gt;&lt;span style=&quot;color: #dcdcdc;&quot;&gt;:&lt;/span&gt;&lt;span style=&quot;color: #f8f8f2;&quot;&gt; &lt;/span&gt;&lt;span style=&quot;color: #ce9178;&quot;&gt;&quot;КТ-5.1&quot;&lt;/span&gt;&lt;span style=&quot;color: #dcdcdc;&quot;&gt;,&lt;/span&gt;&lt;/div&gt;&lt;div&gt;&lt;span style=&quot;color: #f8f8f2;&quot;&gt;                    &lt;/span&gt;&lt;span style=&quot;color: #9cdcfe;&quot;&gt;&quot;manufactureNum&quot;&lt;/span&gt;&lt;span style=&quot;color: #dcdcdc;&quot;&gt;:&lt;/span&gt;&lt;span style=&quot;color: #f8f8f2;&quot;&gt; &lt;/span&gt;&lt;span style=&quot;color: #ce9178;&quot;&gt;&quot;120&quot;&lt;/span&gt;&lt;span style=&quot;color: #dcdcdc;&quot;&gt;,&lt;/span&gt;&lt;/div&gt;&lt;div&gt;&lt;span style=&quot;color: #f8f8f2;&quot;&gt;                    &lt;/span&gt;&lt;span style=&quot;color: #9cdcfe;&quot;&gt;&quot;manufactureYear&quot;&lt;/span&gt;&lt;span style=&quot;color: #dcdcdc;&quot;&gt;:&lt;/span&gt;&lt;span style=&quot;color: #f8f8f2;&quot;&gt; &lt;/span&gt;&lt;span style=&quot;color: #b5cea8;&quot;&gt;2020&lt;/span&gt;&lt;span style=&quot;color: #dcdcdc;&quot;&gt;,&lt;/span&gt;&lt;/div&gt;&lt;div&gt;&lt;span style=&quot;color: #f8f8f2;&quot;&gt;                    &lt;/span&gt;&lt;span style=&quot;color: #9cdcfe;&quot;&gt;&quot;rankCode&quot;&lt;/span&gt;&lt;span style=&quot;color: #dcdcdc;&quot;&gt;:&lt;/span&gt;&lt;span style=&quot;color: #f8f8f2;&quot;&gt; &lt;/span&gt;&lt;span style=&quot;color: #ce9178;&quot;&gt;&quot;4Р&quot;&lt;/span&gt;&lt;span style=&quot;color: #dcdcdc;&quot;&gt;,&lt;/span&gt;&lt;/div&gt;&lt;div&gt;&lt;span style=&quot;color: #f8f8f2;&quot;&gt;                    &lt;/span&gt;&lt;span style=&quot;color: #9cdcfe;&quot;&gt;&quot;rankTitle&quot;&lt;/span&gt;&lt;span style=&quot;color: #dcdcdc;&quot;&gt;:&lt;/span&gt;&lt;span style=&quot;color: #f8f8f2;&quot;&gt; &lt;/span&gt;&lt;span style=&quot;color: #ce9178;&quot;&gt;&quot;Эталон 4-го разряда&quot;&lt;/span&gt;&lt;span style=&quot;color: #dcdcdc;&quot;&gt;,&lt;/span&gt;&lt;/div&gt;&lt;div&gt;&lt;span style=&quot;color: #f8f8f2;&quot;&gt;                    &lt;/span&gt;&lt;span style=&quot;color: #9cdcfe;&quot;&gt;&quot;schemaTitle&quot;&lt;/span&gt;&lt;span style=&quot;color: #dcdcdc;&quot;&gt;:&lt;/span&gt;&lt;span style=&quot;color: #f8f8f2;&quot;&gt; &lt;/span&gt;&lt;span style=&quot;color: #ce9178;&quot;&gt;&quot;приказ № 3456 Федерального агентства по техническому регулированию и метрологии&quot;&lt;/span&gt;&lt;/div&gt;&lt;div&gt;&lt;span style=&quot;color: #f8f8f2;&quot;&gt;                &lt;/span&gt;&lt;span style=&quot;color: #dcdcdc;&quot;&gt;},&lt;/span&gt;&lt;/div&gt;&lt;div&gt;&lt;span style=&quot;color: #f8f8f2;&quot;&gt;                &lt;/span&gt;&lt;span style=&quot;color: #dcdcdc;&quot;&gt;{&lt;/span&gt;&lt;/div&gt;&lt;div&gt;&lt;span style=&quot;color: #f8f8f2;&quot;&gt;                    &lt;/span&gt;&lt;span style=&quot;color: #9cdcfe;&quot;&gt;&quot;regNumber&quot;&lt;/span&gt;&lt;span style=&quot;color: #dcdcdc;&quot;&gt;:&lt;/span&gt;&lt;span style=&quot;color: #f8f8f2;&quot;&gt; &lt;/span&gt;&lt;span style=&quot;color: #ce9178;&quot;&gt;&quot;65779.16.3Р.01236513&quot;&lt;/span&gt;&lt;span style=&quot;color: #dcdcdc;&quot;&gt;,&lt;/span&gt;&lt;/div&gt;&lt;div&gt;&lt;span style=&quot;color: #f8f8f2;&quot;&gt;                    &lt;/span&gt;&lt;span style=&quot;color: #9cdcfe;&quot;&gt;&quot;mietaURL&quot;&lt;/span&gt;&lt;span style=&quot;color: #dcdcdc;&quot;&gt;:&lt;/span&gt;&lt;span style=&quot;color: #f8f8f2;&quot;&gt; &lt;/span&gt;&lt;span style=&quot;color: #ce9178;&quot;&gt;&quot;https://fgis.gost.ru/fundmetrology/cm/etalons/1236513&quot;&lt;/span&gt;&lt;span style=&quot;color: #dcdcdc;&quot;&gt;,&lt;/span&gt;&lt;/div&gt;&lt;div&gt;&lt;span style=&quot;color: #f8f8f2;&quot;&gt;                    &lt;/span&gt;&lt;span style=&quot;color: #9cdcfe;&quot;&gt;&quot;mitypeNumber&quot;&lt;/span&gt;&lt;span style=&quot;color: #dcdcdc;&quot;&gt;:&lt;/span&gt;&lt;span style=&quot;color: #f8f8f2;&quot;&gt; &lt;/span&gt;&lt;span style=&quot;color: #ce9178;&quot;&gt;&quot;65779-16&quot;&lt;/span&gt;&lt;span style=&quot;color: #dcdcdc;&quot;&gt;,&lt;/span&gt;&lt;/div&gt;&lt;div&gt;&lt;span style=&quot;color: #f8f8f2;&quot;&gt;                    &lt;/span&gt;&lt;span style=&quot;color: #9cdcfe;&quot;&gt;&quot;mitypeURL&quot;&lt;/span&gt;&lt;span style=&quot;color: #dcdcdc;&quot;&gt;:&lt;/span&gt;&lt;span style=&quot;color: #f8f8f2;&quot;&gt; &lt;/span&gt;&lt;span style=&quot;color: #ce9178;&quot;&gt;&quot;https://fgis.gost.ru/fundmetrology/cm/mits/32f0ecba-5a3f-a695-a5b7-fe66dc41afdb&quot;&lt;/span&gt;&lt;span style=&quot;color: #dcdcdc;&quot;&gt;,&lt;/span&gt;&lt;/div&gt;&lt;div&gt;&lt;span style=&quot;color: #f8f8f2;&quot;&gt;                    &lt;/span&gt;&lt;span style=&quot;color: #9cdcfe;&quot;&gt;&quot;mitypeTitle&quot;&lt;/span&gt;&lt;span style=&quot;color: #dcdcdc;&quot;&gt;:&lt;/span&gt;&lt;span style=&quot;color: #f8f8f2;&quot;&gt; &lt;/span&gt;&lt;span style=&quot;color: #ce9178;&quot;&gt;&quot;Калибраторы температуры&quot;&lt;/span&gt;&lt;span style=&quot;color: #dcdcdc;&quot;&gt;,&lt;/span&gt;&lt;/div&gt;&lt;div&gt;&lt;span style=&quot;color: #f8f8f2;&quot;&gt;                    &lt;/span&gt;&lt;span style=&quot;color: #9cdcfe;&quot;&gt;&quot;notation&quot;&lt;/span&gt;&lt;span style=&quot;color: #dcdcdc;&quot;&gt;:&lt;/span&gt;&lt;span style=&quot;color: #f8f8f2;&quot;&gt; &lt;/span&gt;&lt;span style=&quot;color: #ce9178;&quot;&gt;&quot;КТ-5&quot;&lt;/span&gt;&lt;span style=&quot;color: #dcdcdc;&quot;&gt;,&lt;/span&gt;&lt;/div&gt;&lt;div&gt;&lt;span style=&quot;color: #f8f8f2;&quot;&gt;                    &lt;/span&gt;&lt;span style=&quot;color: #9cdcfe;&quot;&gt;&quot;modification&quot;&lt;/span&gt;&lt;span style=&quot;color: #dcdcdc;&quot;&gt;:&lt;/span&gt;&lt;span style=&quot;color: #f8f8f2;&quot;&gt; &lt;/span&gt;&lt;span style=&quot;color: #ce9178;&quot;&gt;&quot;КТ-5.1&quot;&lt;/span&gt;&lt;span style=&quot;color: #dcdcdc;&quot;&gt;,&lt;/span&gt;&lt;/div&gt;&lt;div&gt;&lt;span style=&quot;color: #f8f8f2;&quot;&gt;                    &lt;/span&gt;&lt;span style=&quot;color: #9cdcfe;&quot;&gt;&quot;manufactureNum&quot;&lt;/span&gt;&lt;span style=&quot;color: #dcdcdc;&quot;&gt;:&lt;/span&gt;&lt;span style=&quot;color: #f8f8f2;&quot;&gt; &lt;/span&gt;&lt;span style=&quot;color: #ce9178;&quot;&gt;&quot;120&quot;&lt;/span&gt;&lt;span style=&quot;color: #dcdcdc;&quot;&gt;,&lt;/span&gt;&lt;/div&gt;&lt;div&gt;&lt;span style=&quot;color: #f8f8f2;&quot;&gt;                    &lt;/span&gt;&lt;span style=&quot;color: #9cdcfe;&quot;&gt;&quot;manufactureYear&quot;&lt;/span&gt;&lt;span style=&quot;color: #dcdcdc;&quot;&gt;:&lt;/span&gt;&lt;span style=&quot;color: #f8f8f2;&quot;&gt; &lt;/span&gt;&lt;span style=&quot;color: #b5cea8;&quot;&gt;2020&lt;/span&gt;&lt;span style=&quot;color: #dcdcdc;&quot;&gt;,&lt;/span&gt;&lt;/div&gt;&lt;div&gt;&lt;span style=&quot;color: #f8f8f2;&quot;&gt;                    &lt;/span&gt;&lt;span style=&quot;color: #9cdcfe;&quot;&gt;&quot;rankCode&quot;&lt;/span&gt;&lt;span style=&quot;color: #dcdcdc;&quot;&gt;:&lt;/span&gt;&lt;span style=&quot;color: #f8f8f2;&quot;&gt; &lt;/span&gt;&lt;span style=&quot;color: #ce9178;&quot;&gt;&quot;3Р&quot;&lt;/span&gt;&lt;span style=&quot;color: #dcdcdc;&quot;&gt;,&lt;/span&gt;&lt;/div&gt;&lt;div&gt;&lt;span style=&quot;color: #f8f8f2;&quot;&gt;                    &lt;/span&gt;&lt;span style=&quot;color: #9cdcfe;&quot;&gt;&quot;rankTitle&quot;&lt;/span&gt;&lt;span style=&quot;color: #dcdcdc;&quot;&gt;:&lt;/span&gt;&lt;span style=&quot;color: #f8f8f2;&quot;&gt; &lt;/span&gt;&lt;span style=&quot;color: #ce9178;&quot;&gt;&quot;Эталон 3-го разряда&quot;&lt;/span&gt;&lt;span style=&quot;color: #dcdcdc;&quot;&gt;,&lt;/span&gt;&lt;/div&gt;&lt;div&gt;&lt;span style=&quot;color: #f8f8f2;&quot;&gt;                    &lt;/span&gt;&lt;span style=&quot;color: #9cdcfe;&quot;&gt;&quot;schemaTitle&quot;&lt;/span&gt;&lt;span style=&quot;color: #dcdcdc;&quot;&gt;:&lt;/span&gt;&lt;span style=&quot;color: #f8f8f2;&quot;&gt; &lt;/span&gt;&lt;span style=&quot;color: #ce9178;&quot;&gt;&quot;Приказ Росстандарта № 2712 от 19 ноября 2024г&quot;&lt;/span&gt;&lt;/div&gt;&lt;div&gt;&lt;span style=&quot;color: #f8f8f2;&quot;&gt;                &lt;/span&gt;&lt;span style=&quot;color: #dcdcdc;&quot;&gt;}&lt;/span&gt;&lt;/div&gt;&lt;div&gt;&lt;span style=&quot;color: #f8f8f2;&quot;&gt;            &lt;/span&gt;&lt;span style=&quot;color: #dcdcdc;&quot;&gt;]&lt;/span&gt;&lt;/div&gt;&lt;div&gt;&lt;span style=&quot;color: #f8f8f2;&quot;&gt;        &lt;/span&gt;&lt;span style=&quot;color: #dcdcdc;&quot;&gt;},&lt;/span&gt;&lt;/div&gt;&lt;div&gt;&lt;span style=&quot;color: #f8f8f2;&quot;&gt;        &lt;/span&gt;&lt;span style=&quot;color: #9cdcfe;&quot;&gt;&quot;info&quot;&lt;/span&gt;&lt;span style=&quot;color: #dcdcdc;&quot;&gt;:&lt;/span&gt;&lt;span style=&quot;color: #f8f8f2;&quot;&gt; &lt;/span&gt;&lt;span style=&quot;color: #dcdcdc;&quot;&gt;{&lt;/span&gt;&lt;/div&gt;&lt;div&gt;&lt;span style=&quot;color: #f8f8f2;&quot;&gt;            &lt;/span&gt;&lt;span style=&quot;color: #9cdcfe;&quot;&gt;&quot;briefIndicator&quot;&lt;/span&gt;&lt;span style=&quot;color: #dcdcdc;&quot;&gt;:&lt;/span&gt;&lt;span style=&quot;color: #f8f8f2;&quot;&gt; &lt;/span&gt;&lt;span style=&quot;color: #ce9178;&quot;&gt;false&lt;/span&gt;&lt;span style=&quot;color: #dcdcdc;&quot;&gt;,&lt;/span&gt;&lt;/div&gt;&lt;div&gt;&lt;span style=&quot;color: #f8f8f2;&quot;&gt;            &lt;/span&gt;&lt;span style=&quot;color: #9cdcfe;&quot;&gt;&quot;additional_info&quot;&lt;/span&gt;&lt;span style=&quot;color: #dcdcdc;&quot;&gt;:&lt;/span&gt;&lt;span style=&quot;color: #f8f8f2;&quot;&gt; &lt;/span&gt;&lt;span style=&quot;color: #ce9178;&quot;&gt;&quot;(-55 - +450) °C&quot;&lt;/span&gt;&lt;/div&gt;&lt;div&gt;&lt;span style=&quot;color: #f8f8f2;&quot;&gt;        &lt;/span&gt;&lt;span style=&quot;color: #dcdcdc;&quot;&gt;}&lt;/span&gt;&lt;/div&gt;&lt;div&gt;&lt;span style=&quot;color: #f8f8f2;&quot;&gt;    &lt;/span&gt;&lt;span style=&quot;color: #dcdcdc;&quot;&gt;}&lt;/span&gt;&lt;/div&gt;&lt;div&gt;&lt;span style=&quot;color: #dcdcdc;&quot;&gt;}&lt;/span&gt;&lt;/div&gt;&lt;/div&gt;" link="&lt;div style=&quot;color: #f8f8f2;background-color: #212121;font-family: IBMPlexMono, monospace, &#39;Droid Sans Fallback&#39;, &#39;Droid Sans Mono&#39;, &#39;monospace&#39;, monospace;font-weight: normal;font-size: 12px;line-height: 18px;white-space: pre;&quot;&gt;&lt;div&gt;&lt;span style=&quot;color: #dcdcdc;&quot;&gt;{&lt;/span&gt;&lt;/div&gt;&lt;div&gt;&lt;span style=&quot;color: #f8f8f2;&quot;&gt;    &lt;/span&gt;&lt;span style=&quot;color: #9cdcfe;&quot;&gt;&quot;result&quot;&lt;/span&gt;&lt;span style=&quot;color: #dcdcdc;&quot;&gt;:&lt;/span&gt;&lt;span style=&quot;color: #f8f8f2;&quot;&gt; &lt;/span&gt;&lt;span style=&quot;color: #dcdcdc;&quot;&gt;{&lt;/span&gt;&lt;/div&gt;&lt;div&gt;&lt;span style=&quot;color: #f8f8f2;&quot;&gt;        &lt;/span&gt;&lt;span style=&quot;color: #9cdcfe;&quot;&gt;&quot;miInfo&quot;&lt;/span&gt;&lt;span style=&quot;color: #dcdcdc;&quot;&gt;:&lt;/span&gt;&lt;span style=&quot;color: #f8f8f2;&quot;&gt; &lt;/span&gt;&lt;span style=&quot;color: #dcdcdc;&quot;&gt;{&lt;/span&gt;&lt;/div&gt;&lt;div&gt;&lt;span style=&quot;color: #f8f8f2;&quot;&gt;            &lt;/span&gt;&lt;span style=&quot;color: #9cdcfe;&quot;&gt;&quot;singleMI&quot;&lt;/span&gt;&lt;span style=&quot;color: #dcdcdc;&quot;&gt;:&lt;/span&gt;&lt;span style=&quot;color: #f8f8f2;&quot;&gt; &lt;/span&gt;&lt;span style=&quot;color: #dcdcdc;&quot;&gt;{&lt;/span&gt;&lt;/div&gt;&lt;div&gt;&lt;span style=&quot;color: #f8f8f2;&quot;&gt;                &lt;/span&gt;&lt;span style=&quot;color: #9cdcfe;&quot;&gt;&quot;mitypeNumber&quot;&lt;/span&gt;&lt;span style=&quot;color: #dcdcdc;&quot;&gt;:&lt;/span&gt;&lt;span style=&quot;color: #f8f8f2;&quot;&gt; &lt;/span&gt;&lt;span style=&quot;color: #ce9178;&quot;&gt;&quot;44786-10&quot;&lt;/span&gt;&lt;span style=&quot;color: #dcdcdc;&quot;&gt;,&lt;/span&gt;&lt;/div&gt;&lt;div&gt;&lt;span style=&quot;color: #f8f8f2;&quot;&gt;                &lt;/span&gt;&lt;span style=&quot;color: #9cdcfe;&quot;&gt;&quot;mitypeURL&quot;&lt;/span&gt;&lt;span style=&quot;color: #dcdcdc;&quot;&gt;:&lt;/span&gt;&lt;span style=&quot;color: #f8f8f2;&quot;&gt; &lt;/span&gt;&lt;span style=&quot;color: #ce9178;&quot;&gt;&quot;https://fgis.gost.ru/fundmetrology/cm/mits/e2bff0ac-0498-22c6-a046-7e0425cb8bdc&quot;&lt;/span&gt;&lt;span style=&quot;color: #dcdcdc;&quot;&gt;,&lt;/span&gt;&lt;/div&gt;&lt;div&gt;&lt;span style=&quot;color: #f8f8f2;&quot;&gt;                &lt;/span&gt;&lt;span style=&quot;color: #9cdcfe;&quot;&gt;&quot;mitypeType&quot;&lt;/span&gt;&lt;span style=&quot;color: #dcdcdc;&quot;&gt;:&lt;/span&gt;&lt;span style=&quot;color: #f8f8f2;&quot;&gt; &lt;/span&gt;&lt;span style=&quot;color: #ce9178;&quot;&gt;&quot;TS&quot;&lt;/span&gt;&lt;span style=&quot;color: #dcdcdc;&quot;&gt;,&lt;/span&gt;&lt;/div&gt;&lt;div&gt;&lt;span style=&quot;color: #f8f8f2;&quot;&gt;                &lt;/span&gt;&lt;span style=&quot;color: #9cdcfe;&quot;&gt;&quot;mitypeTitle&quot;&lt;/span&gt;&lt;span style=&quot;color: #dcdcdc;&quot;&gt;:&lt;/span&gt;&lt;span style=&quot;color: #f8f8f2;&quot;&gt; &lt;/span&gt;&lt;span style=&quot;color: #ce9178;&quot;&gt;&quot;Термопреобразователи сопротивления&quot;&lt;/span&gt;&lt;span style=&quot;color: #dcdcdc;&quot;&gt;,&lt;/span&gt;&lt;/div&gt;&lt;div&gt;&lt;span style=&quot;color: #f8f8f2;&quot;&gt;                &lt;/span&gt;&lt;span style=&quot;color: #9cdcfe;&quot;&gt;&quot;manufactureNum&quot;&lt;/span&gt;&lt;span style=&quot;color: #dcdcdc;&quot;&gt;:&lt;/span&gt;&lt;span style=&quot;color: #f8f8f2;&quot;&gt; &lt;/span&gt;&lt;span style=&quot;color: #ce9178;&quot;&gt;&quot;119230216-01&quot;&lt;/span&gt;&lt;span style=&quot;color: #dcdcdc;&quot;&gt;,&lt;/span&gt;&lt;/div&gt;&lt;div&gt;&lt;span style=&quot;color: #f8f8f2;&quot;&gt;                &lt;/span&gt;&lt;span style=&quot;color: #9cdcfe;&quot;&gt;&quot;manufactureYear&quot;&lt;/span&gt;&lt;span style=&quot;color: #dcdcdc;&quot;&gt;:&lt;/span&gt;&lt;span style=&quot;color: #f8f8f2;&quot;&gt; &lt;/span&gt;&lt;span style=&quot;color: #b5cea8;&quot;&gt;2016&lt;/span&gt;&lt;span style=&quot;color: #dcdcdc;&quot;&gt;,&lt;/span&gt;&lt;/div&gt;&lt;div&gt;&lt;span style=&quot;color: #f8f8f2;&quot;&gt;                &lt;/span&gt;&lt;span style=&quot;color: #9cdcfe;&quot;&gt;&quot;modification&quot;&lt;/span&gt;&lt;span style=&quot;color: #dcdcdc;&quot;&gt;:&lt;/span&gt;&lt;span style=&quot;color: #f8f8f2;&quot;&gt; &lt;/span&gt;&lt;span style=&quot;color: #ce9178;&quot;&gt;&quot;TS-CVO-RTD&quot;&lt;/span&gt;&lt;/div&gt;&lt;div&gt;&lt;span style=&quot;color: #f8f8f2;&quot;&gt;            &lt;/span&gt;&lt;span style=&quot;color: #dcdcdc;&quot;&gt;}&lt;/span&gt;&lt;/div&gt;&lt;div&gt;&lt;span style=&quot;color: #f8f8f2;&quot;&gt;        &lt;/span&gt;&lt;span style=&quot;color: #dcdcdc;&quot;&gt;},&lt;/span&gt;&lt;/div&gt;&lt;div&gt;&lt;span style=&quot;color: #f8f8f2;&quot;&gt;        &lt;/span&gt;&lt;span style=&quot;color: #9cdcfe;&quot;&gt;&quot;vriInfo&quot;&lt;/span&gt;&lt;span style=&quot;color: #dcdcdc;&quot;&gt;:&lt;/span&gt;&lt;span style=&quot;color: #f8f8f2;&quot;&gt; &lt;/span&gt;&lt;span style=&quot;color: #dcdcdc;&quot;&gt;{&lt;/span&gt;&lt;/div&gt;&lt;div&gt;&lt;span style=&quot;color: #f8f8f2;&quot;&gt;            &lt;/span&gt;&lt;span style=&quot;color: #9cdcfe;&quot;&gt;&quot;organization&quot;&lt;/span&gt;&lt;span style=&quot;color: #dcdcdc;&quot;&gt;:&lt;/span&gt;&lt;span style=&quot;color: #f8f8f2;&quot;&gt; &lt;/span&gt;&lt;span style=&quot;color: #ce9178;&quot;&gt;&quot;ОБЩЕСТВО С ОГРАНИЧЕННОЙ ОТВЕТСТВЕННОСТЬЮ \&quot;МНОГОЦЕЛЕВАЯ КОМПАНИЯ. АВТОМАТИЗАЦИЯ. ИССЛЕДОВАНИЯ. РАЗРАБОТКИ\&quot;(ООО \&quot;МКАИР\&quot;)&quot;&lt;/span&gt;&lt;span style=&quot;color: #dcdcdc;&quot;&gt;,&lt;/span&gt;&lt;/div&gt;&lt;div&gt;&lt;span style=&quot;color: #f8f8f2;&quot;&gt;            &lt;/span&gt;&lt;span style=&quot;color: #9cdcfe;&quot;&gt;&quot;signCipher&quot;&lt;/span&gt;&lt;span style=&quot;color: #dcdcdc;&quot;&gt;:&lt;/span&gt;&lt;span style=&quot;color: #f8f8f2;&quot;&gt; &lt;/span&gt;&lt;span style=&quot;color: #ce9178;&quot;&gt;&quot;ЕЖБ&quot;&lt;/span&gt;&lt;span style=&quot;color: #dcdcdc;&quot;&gt;,&lt;/span&gt;&lt;/div&gt;&lt;div&gt;&lt;span style=&quot;color: #f8f8f2;&quot;&gt;            &lt;/span&gt;&lt;span style=&quot;color: #9cdcfe;&quot;&gt;&quot;miOwner&quot;&lt;/span&gt;&lt;span style=&quot;color: #dcdcdc;&quot;&gt;:&lt;/span&gt;&lt;span style=&quot;color: #f8f8f2;&quot;&gt; &lt;/span&gt;&lt;span style=&quot;color: #ce9178;&quot;&gt;&quot;ООО \&quot;РИ-ИНВЕСТ\&quot;&quot;&lt;/span&gt;&lt;span style=&quot;color: #dcdcdc;&quot;&gt;,&lt;/span&gt;&lt;/div&gt;&lt;div&gt;&lt;span style=&quot;color: #f8f8f2;&quot;&gt;            &lt;/span&gt;&lt;span style=&quot;color: #9cdcfe;&quot;&gt;&quot;vrfDate&quot;&lt;/span&gt;&lt;span style=&quot;color: #dcdcdc;&quot;&gt;:&lt;/span&gt;&lt;span style=&quot;color: #f8f8f2;&quot;&gt; &lt;/span&gt;&lt;span style=&quot;color: #ce9178;&quot;&gt;&quot;05.02.2025&quot;&lt;/span&gt;&lt;span style=&quot;color: #dcdcdc;&quot;&gt;,&lt;/span&gt;&lt;/div&gt;&lt;div&gt;&lt;span style=&quot;color: #f8f8f2;&quot;&gt;            &lt;/span&gt;&lt;span style=&quot;color: #9cdcfe;&quot;&gt;&quot;validDate&quot;&lt;/span&gt;&lt;span style=&quot;color: #dcdcdc;&quot;&gt;:&lt;/span&gt;&lt;span style=&quot;color: #f8f8f2;&quot;&gt; &lt;/span&gt;&lt;span style=&quot;color: #ce9178;&quot;&gt;&quot;04.02.2027&quot;&lt;/span&gt;&lt;span style=&quot;color: #dcdcdc;&quot;&gt;,&lt;/span&gt;&lt;/div&gt;&lt;div&gt;&lt;span style=&quot;color: #f8f8f2;&quot;&gt;            &lt;/span&gt;&lt;span style=&quot;color: #9cdcfe;&quot;&gt;&quot;vriType&quot;&lt;/span&gt;&lt;span style=&quot;color: #dcdcdc;&quot;&gt;:&lt;/span&gt;&lt;span style=&quot;color: #f8f8f2;&quot;&gt; &lt;/span&gt;&lt;span style=&quot;color: #ce9178;&quot;&gt;&quot;2&quot;&lt;/span&gt;&lt;span style=&quot;color: #dcdcdc;&quot;&gt;,&lt;/span&gt;&lt;/div&gt;&lt;div&gt;&lt;span style=&quot;color: #f8f8f2;&quot;&gt;            &lt;/span&gt;&lt;span style=&quot;color: #9cdcfe;&quot;&gt;&quot;docTitle&quot;&lt;/span&gt;&lt;span style=&quot;color: #dcdcdc;&quot;&gt;:&lt;/span&gt;&lt;span style=&quot;color: #f8f8f2;&quot;&gt; &lt;/span&gt;&lt;span style=&quot;color: #ce9178;&quot;&gt;&quot;ГОСТ 8.461-2009&quot;&lt;/span&gt;&lt;span style=&quot;color: #dcdcdc;&quot;&gt;,&lt;/span&gt;&lt;/div&gt;&lt;div&gt;&lt;span style=&quot;color: #f8f8f2;&quot;&gt;            &lt;/span&gt;&lt;span style=&quot;color: #9cdcfe;&quot;&gt;&quot;applicable&quot;&lt;/span&gt;&lt;span style=&quot;color: #dcdcdc;&quot;&gt;:&lt;/span&gt;&lt;span style=&quot;color: #f8f8f2;&quot;&gt; &lt;/span&gt;&lt;span style=&quot;color: #dcdcdc;&quot;&gt;{&lt;/span&gt;&lt;/div&gt;&lt;div&gt;&lt;span style=&quot;color: #f8f8f2;&quot;&gt;                &lt;/span&gt;&lt;span style=&quot;color: #9cdcfe;&quot;&gt;&quot;certNum&quot;&lt;/span&gt;&lt;span style=&quot;color: #dcdcdc;&quot;&gt;:&lt;/span&gt;&lt;span style=&quot;color: #f8f8f2;&quot;&gt; &lt;/span&gt;&lt;span style=&quot;color: #ce9178;&quot;&gt;&quot;С-ЕЖБ/05-02-2025/411797171&quot;&lt;/span&gt;&lt;span style=&quot;color: #dcdcdc;&quot;&gt;,&lt;/span&gt;&lt;/div&gt;&lt;div&gt;&lt;span style=&quot;color: #f8f8f2;&quot;&gt;                &lt;/span&gt;&lt;span style=&quot;color: #9cdcfe;&quot;&gt;&quot;signPass&quot;&lt;/span&gt;&lt;span style=&quot;color: #dcdcdc;&quot;&gt;:&lt;/span&gt;&lt;span style=&quot;color: #f8f8f2;&quot;&gt; &lt;/span&gt;&lt;span style=&quot;color: #ce9178;&quot;&gt;false&lt;/span&gt;&lt;span style=&quot;color: #dcdcdc;&quot;&gt;,&lt;/span&gt;&lt;/div&gt;&lt;div&gt;&lt;span style=&quot;color: #f8f8f2;&quot;&gt;                &lt;/span&gt;&lt;span style=&quot;color: #9cdcfe;&quot;&gt;&quot;signMi&quot;&lt;/span&gt;&lt;span style=&quot;color: #dcdcdc;&quot;&gt;:&lt;/span&gt;&lt;span style=&quot;color: #f8f8f2;&quot;&gt; &lt;/span&gt;&lt;span style=&quot;color: #ce9178;&quot;&gt;false&lt;/span&gt;&lt;/div&gt;&lt;div&gt;&lt;span style=&quot;color: #f8f8f2;&quot;&gt;            &lt;/span&gt;&lt;span style=&quot;color: #dcdcdc;&quot;&gt;}&lt;/span&gt;&lt;/div&gt;&lt;div&gt;&lt;span style=&quot;color: #f8f8f2;&quot;&gt;        &lt;/span&gt;&lt;span style=&quot;color: #dcdcdc;&quot;&gt;},&lt;/span&gt;&lt;/div&gt;&lt;div&gt;&lt;span style=&quot;color: #f8f8f2;&quot;&gt;        &lt;/span&gt;&lt;span style=&quot;color: #9cdcfe;&quot;&gt;&quot;means&quot;&lt;/span&gt;&lt;span style=&quot;color: #dcdcdc;&quot;&gt;:&lt;/span&gt;&lt;span style=&quot;color: #f8f8f2;&quot;&gt; &lt;/span&gt;&lt;span style=&quot;color: #dcdcdc;&quot;&gt;{&lt;/span&gt;&lt;/div&gt;&lt;div&gt;&lt;span style=&quot;color: #f8f8f2;&quot;&gt;            &lt;/span&gt;&lt;span style=&quot;color: #9cdcfe;&quot;&gt;&quot;mieta&quot;&lt;/span&gt;&lt;span style=&quot;color: #dcdcdc;&quot;&gt;:&lt;/span&gt;&lt;span style=&quot;color: #f8f8f2;&quot;&gt; &lt;/span&gt;&lt;span style=&quot;color: #dcdcdc;&quot;&gt;[&lt;/span&gt;&lt;/div&gt;&lt;div&gt;&lt;span style=&quot;color: #f8f8f2;&quot;&gt;                &lt;/span&gt;&lt;span style=&quot;color: #dcdcdc;&quot;&gt;{&lt;/span&gt;&lt;/div&gt;&lt;div&gt;&lt;span style=&quot;color: #f8f8f2;&quot;&gt;                    &lt;/span&gt;&lt;span style=&quot;color: #9cdcfe;&quot;&gt;&quot;regNumber&quot;&lt;/span&gt;&lt;span style=&quot;color: #dcdcdc;&quot;&gt;:&lt;/span&gt;&lt;span style=&quot;color: #f8f8f2;&quot;&gt; &lt;/span&gt;&lt;span style=&quot;color: #ce9178;&quot;&gt;&quot;65779.16.4Р.00169310&quot;&lt;/span&gt;&lt;span style=&quot;color: #dcdcdc;&quot;&gt;,&lt;/span&gt;&lt;/div&gt;&lt;div&gt;&lt;span style=&quot;color: #f8f8f2;&quot;&gt;                    &lt;/span&gt;&lt;span style=&quot;color: #9cdcfe;&quot;&gt;&quot;mietaURL&quot;&lt;/span&gt;&lt;span style=&quot;color: #dcdcdc;&quot;&gt;:&lt;/span&gt;&lt;span style=&quot;color: #f8f8f2;&quot;&gt; &lt;/span&gt;&lt;span style=&quot;color: #ce9178;&quot;&gt;&quot;https://fgis.gost.ru/fundmetrology/cm/etalons/169310&quot;&lt;/span&gt;&lt;span style=&quot;color: #dcdcdc;&quot;&gt;,&lt;/span&gt;&lt;/div&gt;&lt;div&gt;&lt;span style=&quot;color: #f8f8f2;&quot;&gt;                    &lt;/span&gt;&lt;span style=&quot;color: #9cdcfe;&quot;&gt;&quot;mitypeNumber&quot;&lt;/span&gt;&lt;span style=&quot;color: #dcdcdc;&quot;&gt;:&lt;/span&gt;&lt;span style=&quot;color: #f8f8f2;&quot;&gt; &lt;/span&gt;&lt;span style=&quot;color: #ce9178;&quot;&gt;&quot;65779-16&quot;&lt;/span&gt;&lt;span style=&quot;color: #dcdcdc;&quot;&gt;,&lt;/span&gt;&lt;/div&gt;&lt;div&gt;&lt;span style=&quot;color: #f8f8f2;&quot;&gt;                    &lt;/span&gt;&lt;span style=&quot;color: #9cdcfe;&quot;&gt;&quot;mitypeURL&quot;&lt;/span&gt;&lt;span style=&quot;color: #dcdcdc;&quot;&gt;:&lt;/span&gt;&lt;span style=&quot;color: #f8f8f2;&quot;&gt; &lt;/span&gt;&lt;span style=&quot;color: #ce9178;&quot;&gt;&quot;https://fgis.gost.ru/fundmetrology/cm/mits/d8ff9345-917b-3bb1-04e1-67e7c4b3ce52&quot;&lt;/span&gt;&lt;span style=&quot;color: #dcdcdc;&quot;&gt;,&lt;/span&gt;&lt;/div&gt;&lt;div&gt;&lt;span style=&quot;color: #f8f8f2;&quot;&gt;                    &lt;/span&gt;&lt;span style=&quot;color: #9cdcfe;&quot;&gt;&quot;mitypeTitle&quot;&lt;/span&gt;&lt;span style=&quot;color: #dcdcdc;&quot;&gt;:&lt;/span&gt;&lt;span style=&quot;color: #f8f8f2;&quot;&gt; &lt;/span&gt;&lt;span style=&quot;color: #ce9178;&quot;&gt;&quot;Калибраторы температуры&quot;&lt;/span&gt;&lt;span style=&quot;color: #dcdcdc;&quot;&gt;,&lt;/span&gt;&lt;/div&gt;&lt;div&gt;&lt;span style=&quot;color: #f8f8f2;&quot;&gt;                    &lt;/span&gt;&lt;span style=&quot;color: #9cdcfe;&quot;&gt;&quot;notation&quot;&lt;/span&gt;&lt;span style=&quot;color: #dcdcdc;&quot;&gt;:&lt;/span&gt;&lt;span style=&quot;color: #f8f8f2;&quot;&gt; &lt;/span&gt;&lt;span style=&quot;color: #ce9178;&quot;&gt;&quot;КТ-5&quot;&lt;/span&gt;&lt;span style=&quot;color: #dcdcdc;&quot;&gt;,&lt;/span&gt;&lt;/div&gt;&lt;div&gt;&lt;span style=&quot;color: #f8f8f2;&quot;&gt;                    &lt;/span&gt;&lt;span style=&quot;color: #9cdcfe;&quot;&gt;&quot;modification&quot;&lt;/span&gt;&lt;span style=&quot;color: #dcdcdc;&quot;&gt;:&lt;/span&gt;&lt;span style=&quot;color: #f8f8f2;&quot;&gt; &lt;/span&gt;&lt;span style=&quot;color: #ce9178;&quot;&gt;&quot;КТ-5.1&quot;&lt;/span&gt;&lt;span style=&quot;color: #dcdcdc;&quot;&gt;,&lt;/span&gt;&lt;/div&gt;&lt;div&gt;&lt;span style=&quot;color: #f8f8f2;&quot;&gt;                    &lt;/span&gt;&lt;span style=&quot;color: #9cdcfe;&quot;&gt;&quot;manufactureNum&quot;&lt;/span&gt;&lt;span style=&quot;color: #dcdcdc;&quot;&gt;:&lt;/span&gt;&lt;span style=&quot;color: #f8f8f2;&quot;&gt; &lt;/span&gt;&lt;span style=&quot;color: #ce9178;&quot;&gt;&quot;120&quot;&lt;/span&gt;&lt;span style=&quot;color: #dcdcdc;&quot;&gt;,&lt;/span&gt;&lt;/div&gt;&lt;div&gt;&lt;span style=&quot;color: #f8f8f2;&quot;&gt;                    &lt;/span&gt;&lt;span style=&quot;color: #9cdcfe;&quot;&gt;&quot;manufactureYear&quot;&lt;/span&gt;&lt;span style=&quot;color: #dcdcdc;&quot;&gt;:&lt;/span&gt;&lt;span style=&quot;color: #f8f8f2;&quot;&gt; &lt;/span&gt;&lt;span style=&quot;color: #b5cea8;&quot;&gt;2020&lt;/span&gt;&lt;span style=&quot;color: #dcdcdc;&quot;&gt;,&lt;/span&gt;&lt;/div&gt;&lt;div&gt;&lt;span style=&quot;color: #f8f8f2;&quot;&gt;                    &lt;/span&gt;&lt;span style=&quot;color: #9cdcfe;&quot;&gt;&quot;rankCode&quot;&lt;/span&gt;&lt;span style=&quot;color: #dcdcdc;&quot;&gt;:&lt;/span&gt;&lt;span style=&quot;color: #f8f8f2;&quot;&gt; &lt;/span&gt;&lt;span style=&quot;color: #ce9178;&quot;&gt;&quot;4Р&quot;&lt;/span&gt;&lt;span style=&quot;color: #dcdcdc;&quot;&gt;,&lt;/span&gt;&lt;/div&gt;&lt;div&gt;&lt;span style=&quot;color: #f8f8f2;&quot;&gt;                    &lt;/span&gt;&lt;span style=&quot;color: #9cdcfe;&quot;&gt;&quot;rankTitle&quot;&lt;/span&gt;&lt;span style=&quot;color: #dcdcdc;&quot;&gt;:&lt;/span&gt;&lt;span style=&quot;color: #f8f8f2;&quot;&gt; &lt;/span&gt;&lt;span style=&quot;color: #ce9178;&quot;&gt;&quot;Эталон 4-го разряда&quot;&lt;/span&gt;&lt;span style=&quot;color: #dcdcdc;&quot;&gt;,&lt;/span&gt;&lt;/div&gt;&lt;div&gt;&lt;span style=&quot;color: #f8f8f2;&quot;&gt;                    &lt;/span&gt;&lt;span style=&quot;color: #9cdcfe;&quot;&gt;&quot;schemaTitle&quot;&lt;/span&gt;&lt;span style=&quot;color: #dcdcdc;&quot;&gt;:&lt;/span&gt;&lt;span style=&quot;color: #f8f8f2;&quot;&gt; &lt;/span&gt;&lt;span style=&quot;color: #ce9178;&quot;&gt;&quot;приказ № 3456 Федерального агентства по техническому регулированию и метрологии&quot;&lt;/span&gt;&lt;/div&gt;&lt;div&gt;&lt;span style=&quot;color: #f8f8f2;&quot;&gt;                &lt;/span&gt;&lt;span style=&quot;color: #dcdcdc;&quot;&gt;},&lt;/span&gt;&lt;/div&gt;&lt;div&gt;&lt;span style=&quot;color: #f8f8f2;&quot;&gt;                &lt;/span&gt;&lt;span style=&quot;color: #dcdcdc;&quot;&gt;{&lt;/span&gt;&lt;/div&gt;&lt;div&gt;&lt;span style=&quot;color: #f8f8f2;&quot;&gt;                    &lt;/span&gt;&lt;span style=&quot;color: #9cdcfe;&quot;&gt;&quot;regNumber&quot;&lt;/span&gt;&lt;span style=&quot;color: #dcdcdc;&quot;&gt;:&lt;/span&gt;&lt;span style=&quot;color: #f8f8f2;&quot;&gt; &lt;/span&gt;&lt;span style=&quot;color: #ce9178;&quot;&gt;&quot;65779.16.3Р.01236513&quot;&lt;/span&gt;&lt;span style=&quot;color: #dcdcdc;&quot;&gt;,&lt;/span&gt;&lt;/div&gt;&lt;div&gt;&lt;span style=&quot;color: #f8f8f2;&quot;&gt;                    &lt;/span&gt;&lt;span style=&quot;color: #9cdcfe;&quot;&gt;&quot;mietaURL&quot;&lt;/span&gt;&lt;span style=&quot;color: #dcdcdc;&quot;&gt;:&lt;/span&gt;&lt;span style=&quot;color: #f8f8f2;&quot;&gt; &lt;/span&gt;&lt;span style=&quot;color: #ce9178;&quot;&gt;&quot;https://fgis.gost.ru/fundmetrology/cm/etalons/1236513&quot;&lt;/span&gt;&lt;span style=&quot;color: #dcdcdc;&quot;&gt;,&lt;/span&gt;&lt;/div&gt;&lt;div&gt;&lt;span style=&quot;color: #f8f8f2;&quot;&gt;                    &lt;/span&gt;&lt;span style=&quot;color: #9cdcfe;&quot;&gt;&quot;mitypeNumber&quot;&lt;/span&gt;&lt;span style=&quot;color: #dcdcdc;&quot;&gt;:&lt;/span&gt;&lt;span style=&quot;color: #f8f8f2;&quot;&gt; &lt;/span&gt;&lt;span style=&quot;color: #ce9178;&quot;&gt;&quot;65779-16&quot;&lt;/span&gt;&lt;span style=&quot;color: #dcdcdc;&quot;&gt;,&lt;/span&gt;&lt;/div&gt;&lt;div&gt;&lt;span style=&quot;color: #f8f8f2;&quot;&gt;                    &lt;/span&gt;&lt;span style=&quot;color: #9cdcfe;&quot;&gt;&quot;mitypeURL&quot;&lt;/span&gt;&lt;span style=&quot;color: #dcdcdc;&quot;&gt;:&lt;/span&gt;&lt;span style=&quot;color: #f8f8f2;&quot;&gt; &lt;/span&gt;&lt;span style=&quot;color: #ce9178;&quot;&gt;&quot;https://fgis.gost.ru/fundmetrology/cm/mits/32f0ecba-5a3f-a695-a5b7-fe66dc41afdb&quot;&lt;/span&gt;&lt;span style=&quot;color: #dcdcdc;&quot;&gt;,&lt;/span&gt;&lt;/div&gt;&lt;div&gt;&lt;span style=&quot;color: #f8f8f2;&quot;&gt;                    &lt;/span&gt;&lt;span style=&quot;color: #9cdcfe;&quot;&gt;&quot;mitypeTitle&quot;&lt;/span&gt;&lt;span style=&quot;color: #dcdcdc;&quot;&gt;:&lt;/span&gt;&lt;span style=&quot;color: #f8f8f2;&quot;&gt; &lt;/span&gt;&lt;span style=&quot;color: #ce9178;&quot;&gt;&quot;Калибраторы температуры&quot;&lt;/span&gt;&lt;span style=&quot;color: #dcdcdc;&quot;&gt;,&lt;/span&gt;&lt;/div&gt;&lt;div&gt;&lt;span style=&quot;color: #f8f8f2;&quot;&gt;                    &lt;/span&gt;&lt;span style=&quot;color: #9cdcfe;&quot;&gt;&quot;notation&quot;&lt;/span&gt;&lt;span style=&quot;color: #dcdcdc;&quot;&gt;:&lt;/span&gt;&lt;span style=&quot;color: #f8f8f2;&quot;&gt; &lt;/span&gt;&lt;span style=&quot;color: #ce9178;&quot;&gt;&quot;КТ-5&quot;&lt;/span&gt;&lt;span style=&quot;color: #dcdcdc;&quot;&gt;,&lt;/span&gt;&lt;/div&gt;&lt;div&gt;&lt;span style=&quot;color: #f8f8f2;&quot;&gt;                    &lt;/span&gt;&lt;span style=&quot;color: #9cdcfe;&quot;&gt;&quot;modification&quot;&lt;/span&gt;&lt;span style=&quot;color: #dcdcdc;&quot;&gt;:&lt;/span&gt;&lt;span style=&quot;color: #f8f8f2;&quot;&gt; &lt;/span&gt;&lt;span style=&quot;color: #ce9178;&quot;&gt;&quot;КТ-5.1&quot;&lt;/span&gt;&lt;span style=&quot;color: #dcdcdc;&quot;&gt;,&lt;/span&gt;&lt;/div&gt;&lt;div&gt;&lt;span style=&quot;color: #f8f8f2;&quot;&gt;                    &lt;/span&gt;&lt;span style=&quot;color: #9cdcfe;&quot;&gt;&quot;manufactureNum&quot;&lt;/span&gt;&lt;span style=&quot;color: #dcdcdc;&quot;&gt;:&lt;/span&gt;&lt;span style=&quot;color: #f8f8f2;&quot;&gt; &lt;/span&gt;&lt;span style=&quot;color: #ce9178;&quot;&gt;&quot;120&quot;&lt;/span&gt;&lt;span style=&quot;color: #dcdcdc;&quot;&gt;,&lt;/span&gt;&lt;/div&gt;&lt;div&gt;&lt;span style=&quot;color: #f8f8f2;&quot;&gt;                    &lt;/span&gt;&lt;span style=&quot;color: #9cdcfe;&quot;&gt;&quot;manufactureYear&quot;&lt;/span&gt;&lt;span style=&quot;color: #dcdcdc;&quot;&gt;:&lt;/span&gt;&lt;span style=&quot;color: #f8f8f2;&quot;&gt; &lt;/span&gt;&lt;span style=&quot;color: #b5cea8;&quot;&gt;2020&lt;/span&gt;&lt;span style=&quot;color: #dcdcdc;&quot;&gt;,&lt;/span&gt;&lt;/div&gt;&lt;div&gt;&lt;span style=&quot;color: #f8f8f2;&quot;&gt;                    &lt;/span&gt;&lt;span style=&quot;color: #9cdcfe;&quot;&gt;&quot;rankCode&quot;&lt;/span&gt;&lt;span style=&quot;color: #dcdcdc;&quot;&gt;:&lt;/span&gt;&lt;span style=&quot;color: #f8f8f2;&quot;&gt; &lt;/span&gt;&lt;span style=&quot;color: #ce9178;&quot;&gt;&quot;3Р&quot;&lt;/span&gt;&lt;span style=&quot;color: #dcdcdc;&quot;&gt;,&lt;/span&gt;&lt;/div&gt;&lt;div&gt;&lt;span style=&quot;color: #f8f8f2;&quot;&gt;                    &lt;/span&gt;&lt;span style=&quot;color: #9cdcfe;&quot;&gt;&quot;rankTitle&quot;&lt;/span&gt;&lt;span style=&quot;color: #dcdcdc;&quot;&gt;:&lt;/span&gt;&lt;span style=&quot;color: #f8f8f2;&quot;&gt; &lt;/span&gt;&lt;span style=&quot;color: #ce9178;&quot;&gt;&quot;Эталон 3-го разряда&quot;&lt;/span&gt;&lt;span style=&quot;color: #dcdcdc;&quot;&gt;,&lt;/span&gt;&lt;/div&gt;&lt;div&gt;&lt;span style=&quot;color: #f8f8f2;&quot;&gt;                    &lt;/span&gt;&lt;span style=&quot;color: #9cdcfe;&quot;&gt;&quot;schemaTitle&quot;&lt;/span&gt;&lt;span style=&quot;color: #dcdcdc;&quot;&gt;:&lt;/span&gt;&lt;span style=&quot;color: #f8f8f2;&quot;&gt; &lt;/span&gt;&lt;span style=&quot;color: #ce9178;&quot;&gt;&quot;Приказ Росстандарта № 2712 от 19 ноября 2024г&quot;&lt;/span&gt;&lt;/div&gt;&lt;div&gt;&lt;span style=&quot;color: #f8f8f2;&quot;&gt;                &lt;/span&gt;&lt;span style=&quot;color: #dcdcdc;&quot;&gt;}&lt;/span&gt;&lt;/div&gt;&lt;div&gt;&lt;span style=&quot;color: #f8f8f2;&quot;&gt;            &lt;/span&gt;&lt;span style=&quot;color: #dcdcdc;&quot;&gt;]&lt;/span&gt;&lt;/div&gt;&lt;div&gt;&lt;span style=&quot;color: #f8f8f2;&quot;&gt;        &lt;/span&gt;&lt;span style=&quot;color: #dcdcdc;&quot;&gt;},&lt;/span&gt;&lt;/div&gt;&lt;div&gt;&lt;span style=&quot;color: #f8f8f2;&quot;&gt;        &lt;/span&gt;&lt;span style=&quot;color: #9cdcfe;&quot;&gt;&quot;info&quot;&lt;/span&gt;&lt;span style=&quot;color: #dcdcdc;&quot;&gt;:&lt;/span&gt;&lt;span style=&quot;color: #f8f8f2;&quot;&gt; &lt;/span&gt;&lt;span style=&quot;color: #dcdcdc;&quot;&gt;{&lt;/span&gt;&lt;/div&gt;&lt;div&gt;&lt;span style=&quot;color: #f8f8f2;&quot;&gt;            &lt;/span&gt;&lt;span style=&quot;color: #9cdcfe;&quot;&gt;&quot;briefIndicator&quot;&lt;/span&gt;&lt;span style=&quot;color: #dcdcdc;&quot;&gt;:&lt;/span&gt;&lt;span style=&quot;color: #f8f8f2;&quot;&gt; &lt;/span&gt;&lt;span style=&quot;color: #ce9178;&quot;&gt;false&lt;/span&gt;&lt;span style=&quot;color: #dcdcdc;&quot;&gt;,&lt;/span&gt;&lt;/div&gt;&lt;div&gt;&lt;span style=&quot;color: #f8f8f2;&quot;&gt;            &lt;/span&gt;&lt;span style=&quot;color: #9cdcfe;&quot;&gt;&quot;additional_info&quot;&lt;/span&gt;&lt;span style=&quot;color: #dcdcdc;&quot;&gt;:&lt;/span&gt;&lt;span style=&quot;color: #f8f8f2;&quot;&gt; &lt;/span&gt;&lt;span style=&quot;color: #ce9178;&quot;&gt;&quot;(-55 - +450) °C&quot;&lt;/span&gt;&lt;/div&gt;&lt;div&gt;&lt;span style=&quot;color: #f8f8f2;&quot;&gt;        &lt;/span&gt;&lt;span style=&quot;color: #dcdcdc;&quot;&gt;}&lt;/span&gt;&lt;/div&gt;&lt;div&gt;&lt;span style=&quot;color: #f8f8f2;&quot;&gt;    &lt;/span&gt;&lt;span style=&quot;color: #dcdcdc;&quot;&gt;}&lt;/span&gt;&lt;/div&gt;&lt;div&gt;&lt;span style=&quot;color: #dcdcdc;&quot;&gt;}&lt;/span&gt;&lt;/div&gt;&lt;/div&gt;" id="Botwioph3PDkmJ7A7z9F-2">
          <mxCell style="text;whiteSpace=wrap;html=1;" vertex="1" parent="1">
            <mxGeometry x="1040" y="180" width="1110" height="1160" as="geometry" />
          </mxCell>
        </UserObject>
        <mxCell id="Botwioph3PDkmJ7A7z9F-3" value="&lt;div style=&quot;color: #f8f8f2;background-color: #212121;font-family: IBMPlexMono, monospace, &#39;Droid Sans Fallback&#39;, &#39;Droid Sans Mono&#39;, &#39;monospace&#39;, monospace;font-weight: normal;font-size: 12px;line-height: 18px;white-space: pre;&quot;&gt;&lt;div&gt;&lt;span style=&quot;color: #dcdcdc;&quot;&gt;{&lt;/span&gt;&lt;/div&gt;&lt;div&gt;&lt;span style=&quot;color: #f8f8f2;&quot;&gt;    &lt;/span&gt;&lt;span style=&quot;color: #9cdcfe;&quot;&gt;&quot;result&quot;&lt;/span&gt;&lt;span style=&quot;color: #dcdcdc;&quot;&gt;:&lt;/span&gt;&lt;span style=&quot;color: #f8f8f2;&quot;&gt; &lt;/span&gt;&lt;span style=&quot;color: #dcdcdc;&quot;&gt;{&lt;/span&gt;&lt;/div&gt;&lt;div&gt;&lt;span style=&quot;color: #f8f8f2;&quot;&gt;        &lt;/span&gt;&lt;span style=&quot;color: #9cdcfe;&quot;&gt;&quot;count&quot;&lt;/span&gt;&lt;span style=&quot;color: #dcdcdc;&quot;&gt;:&lt;/span&gt;&lt;span style=&quot;color: #f8f8f2;&quot;&gt; &lt;/span&gt;&lt;span style=&quot;color: #b5cea8;&quot;&gt;1&lt;/span&gt;&lt;span style=&quot;color: #dcdcdc;&quot;&gt;,&lt;/span&gt;&lt;/div&gt;&lt;div&gt;&lt;span style=&quot;color: #f8f8f2;&quot;&gt;        &lt;/span&gt;&lt;span style=&quot;color: #9cdcfe;&quot;&gt;&quot;start&quot;&lt;/span&gt;&lt;span style=&quot;color: #dcdcdc;&quot;&gt;:&lt;/span&gt;&lt;span style=&quot;color: #f8f8f2;&quot;&gt; &lt;/span&gt;&lt;span style=&quot;color: #b5cea8;&quot;&gt;0&lt;/span&gt;&lt;span style=&quot;color: #dcdcdc;&quot;&gt;,&lt;/span&gt;&lt;/div&gt;&lt;div&gt;&lt;span style=&quot;color: #f8f8f2;&quot;&gt;        &lt;/span&gt;&lt;span style=&quot;color: #9cdcfe;&quot;&gt;&quot;rows&quot;&lt;/span&gt;&lt;span style=&quot;color: #dcdcdc;&quot;&gt;:&lt;/span&gt;&lt;span style=&quot;color: #f8f8f2;&quot;&gt; &lt;/span&gt;&lt;span style=&quot;color: #b5cea8;&quot;&gt;10&lt;/span&gt;&lt;span style=&quot;color: #dcdcdc;&quot;&gt;,&lt;/span&gt;&lt;/div&gt;&lt;div&gt;&lt;span style=&quot;color: #f8f8f2;&quot;&gt;        &lt;/span&gt;&lt;span style=&quot;color: #9cdcfe;&quot;&gt;&quot;items&quot;&lt;/span&gt;&lt;span style=&quot;color: #dcdcdc;&quot;&gt;:&lt;/span&gt;&lt;span style=&quot;color: #f8f8f2;&quot;&gt; &lt;/span&gt;&lt;span style=&quot;color: #dcdcdc;&quot;&gt;[&lt;/span&gt;&lt;/div&gt;&lt;div&gt;&lt;span style=&quot;color: #f8f8f2;&quot;&gt;            &lt;/span&gt;&lt;span style=&quot;color: #dcdcdc;&quot;&gt;{&lt;/span&gt;&lt;/div&gt;&lt;div&gt;&lt;span style=&quot;color: #f8f8f2;&quot;&gt;                &lt;/span&gt;&lt;span style=&quot;color: #9cdcfe;&quot;&gt;&quot;vri_id&quot;&lt;/span&gt;&lt;span style=&quot;color: #dcdcdc;&quot;&gt;:&lt;/span&gt;&lt;span style=&quot;color: #f8f8f2;&quot;&gt; &lt;/span&gt;&lt;span style=&quot;color: #ce9178;&quot;&gt;&quot;1-411933577&quot;&lt;/span&gt;&lt;span style=&quot;color: #dcdcdc;&quot;&gt;,&lt;/span&gt;&lt;/div&gt;&lt;div&gt;&lt;span style=&quot;color: #f8f8f2;&quot;&gt;                &lt;/span&gt;&lt;span style=&quot;color: #9cdcfe;&quot;&gt;&quot;org_title&quot;&lt;/span&gt;&lt;span style=&quot;color: #dcdcdc;&quot;&gt;:&lt;/span&gt;&lt;span style=&quot;color: #f8f8f2;&quot;&gt; &lt;/span&gt;&lt;span style=&quot;color: #ce9178;&quot;&gt;&quot;ООО \&quot;МКАИР\&quot;&quot;&lt;/span&gt;&lt;span style=&quot;color: #dcdcdc;&quot;&gt;,&lt;/span&gt;&lt;/div&gt;&lt;div&gt;&lt;span style=&quot;color: #f8f8f2;&quot;&gt;                &lt;/span&gt;&lt;span style=&quot;color: #9cdcfe;&quot;&gt;&quot;mit_number&quot;&lt;/span&gt;&lt;span style=&quot;color: #dcdcdc;&quot;&gt;:&lt;/span&gt;&lt;span style=&quot;color: #f8f8f2;&quot;&gt; &lt;/span&gt;&lt;span style=&quot;color: #ce9178;&quot;&gt;&quot;44786-10&quot;&lt;/span&gt;&lt;span style=&quot;color: #dcdcdc;&quot;&gt;,&lt;/span&gt;&lt;/div&gt;&lt;div&gt;&lt;span style=&quot;color: #f8f8f2;&quot;&gt;                &lt;/span&gt;&lt;span style=&quot;color: #9cdcfe;&quot;&gt;&quot;mit_title&quot;&lt;/span&gt;&lt;span style=&quot;color: #dcdcdc;&quot;&gt;:&lt;/span&gt;&lt;span style=&quot;color: #f8f8f2;&quot;&gt; &lt;/span&gt;&lt;span style=&quot;color: #ce9178;&quot;&gt;&quot;Термопреобразователи сопротивления&quot;&lt;/span&gt;&lt;span style=&quot;color: #dcdcdc;&quot;&gt;,&lt;/span&gt;&lt;/div&gt;&lt;div&gt;&lt;span style=&quot;color: #f8f8f2;&quot;&gt;                &lt;/span&gt;&lt;span style=&quot;color: #9cdcfe;&quot;&gt;&quot;mit_notation&quot;&lt;/span&gt;&lt;span style=&quot;color: #dcdcdc;&quot;&gt;:&lt;/span&gt;&lt;span style=&quot;color: #f8f8f2;&quot;&gt; &lt;/span&gt;&lt;span style=&quot;color: #ce9178;&quot;&gt;&quot;TS&quot;&lt;/span&gt;&lt;span style=&quot;color: #dcdcdc;&quot;&gt;,&lt;/span&gt;&lt;/div&gt;&lt;div&gt;&lt;span style=&quot;color: #f8f8f2;&quot;&gt;                &lt;/span&gt;&lt;span style=&quot;color: #9cdcfe;&quot;&gt;&quot;mi_modification&quot;&lt;/span&gt;&lt;span style=&quot;color: #dcdcdc;&quot;&gt;:&lt;/span&gt;&lt;span style=&quot;color: #f8f8f2;&quot;&gt; &lt;/span&gt;&lt;span style=&quot;color: #ce9178;&quot;&gt;&quot;TS-CVO-RTD&quot;&lt;/span&gt;&lt;span style=&quot;color: #dcdcdc;&quot;&gt;,&lt;/span&gt;&lt;/div&gt;&lt;div&gt;&lt;span style=&quot;color: #f8f8f2;&quot;&gt;                &lt;/span&gt;&lt;span style=&quot;color: #9cdcfe;&quot;&gt;&quot;mi_number&quot;&lt;/span&gt;&lt;span style=&quot;color: #dcdcdc;&quot;&gt;:&lt;/span&gt;&lt;span style=&quot;color: #f8f8f2;&quot;&gt; &lt;/span&gt;&lt;span style=&quot;color: #ce9178;&quot;&gt;&quot;119230216-01&quot;&lt;/span&gt;&lt;span style=&quot;color: #dcdcdc;&quot;&gt;,&lt;/span&gt;&lt;/div&gt;&lt;div&gt;&lt;span style=&quot;color: #f8f8f2;&quot;&gt;                &lt;/span&gt;&lt;span style=&quot;color: #9cdcfe;&quot;&gt;&quot;verification_date&quot;&lt;/span&gt;&lt;span style=&quot;color: #dcdcdc;&quot;&gt;:&lt;/span&gt;&lt;span style=&quot;color: #f8f8f2;&quot;&gt; &lt;/span&gt;&lt;span style=&quot;color: #ce9178;&quot;&gt;&quot;05.02.2025&quot;&lt;/span&gt;&lt;span style=&quot;color: #dcdcdc;&quot;&gt;,&lt;/span&gt;&lt;/div&gt;&lt;div&gt;&lt;span style=&quot;color: #f8f8f2;&quot;&gt;                &lt;/span&gt;&lt;span style=&quot;color: #9cdcfe;&quot;&gt;&quot;valid_date&quot;&lt;/span&gt;&lt;span style=&quot;color: #dcdcdc;&quot;&gt;:&lt;/span&gt;&lt;span style=&quot;color: #f8f8f2;&quot;&gt; &lt;/span&gt;&lt;span style=&quot;color: #ce9178;&quot;&gt;&quot;04.02.2027&quot;&lt;/span&gt;&lt;span style=&quot;color: #dcdcdc;&quot;&gt;,&lt;/span&gt;&lt;/div&gt;&lt;div&gt;&lt;span style=&quot;color: #f8f8f2;&quot;&gt;                &lt;/span&gt;&lt;span style=&quot;color: #9cdcfe;&quot;&gt;&quot;result_docnum&quot;&lt;/span&gt;&lt;span style=&quot;color: #dcdcdc;&quot;&gt;:&lt;/span&gt;&lt;span style=&quot;color: #f8f8f2;&quot;&gt; &lt;/span&gt;&lt;span style=&quot;color: #ce9178;&quot;&gt;&quot;С-ЕЖБ/05-02-2025/411797171&quot;&lt;/span&gt;&lt;span style=&quot;color: #dcdcdc;&quot;&gt;,&lt;/span&gt;&lt;/div&gt;&lt;div&gt;&lt;span style=&quot;color: #f8f8f2;&quot;&gt;                &lt;/span&gt;&lt;span style=&quot;color: #9cdcfe;&quot;&gt;&quot;applicability&quot;&lt;/span&gt;&lt;span style=&quot;color: #dcdcdc;&quot;&gt;:&lt;/span&gt;&lt;span style=&quot;color: #f8f8f2;&quot;&gt; &lt;/span&gt;&lt;span style=&quot;color: #ce9178;&quot;&gt;true&lt;/span&gt;&lt;/div&gt;&lt;div&gt;&lt;span style=&quot;color: #f8f8f2;&quot;&gt;            &lt;/span&gt;&lt;span style=&quot;color: #dcdcdc;&quot;&gt;}&lt;/span&gt;&lt;/div&gt;&lt;div&gt;&lt;span style=&quot;color: #f8f8f2;&quot;&gt;        &lt;/span&gt;&lt;span style=&quot;color: #dcdcdc;&quot;&gt;]&lt;/span&gt;&lt;/div&gt;&lt;div&gt;&lt;span style=&quot;color: #f8f8f2;&quot;&gt;    &lt;/span&gt;&lt;span style=&quot;color: #dcdcdc;&quot;&gt;}&lt;/span&gt;&lt;/div&gt;&lt;div&gt;&lt;span style=&quot;color: #dcdcdc;&quot;&gt;}&lt;/span&gt;&lt;/div&gt;&lt;/div&gt;" style="text;whiteSpace=wrap;html=1;" vertex="1" parent="1">
          <mxGeometry x="1040" y="1430" width="510" height="420" as="geometry" />
        </mxCell>
        <mxCell id="Botwioph3PDkmJ7A7z9F-4" value="&lt;div&gt;Поиск по vri_id&lt;/div&gt;" style="text;html=1;align=center;verticalAlign=middle;resizable=0;points=[];autosize=1;strokeColor=none;fillColor=none;" vertex="1" parent="1">
          <mxGeometry x="1040" y="140" width="120" height="30" as="geometry" />
        </mxCell>
        <mxCell id="Botwioph3PDkmJ7A7z9F-5" value="Поиск по&amp;nbsp;&amp;nbsp;&lt;span style=&quot;color: light-dark(rgb(156, 220, 254), rgb(255, 255, 255));&quot;&gt;&lt;span style=&quot;color: rgb(156, 220, 254);&quot;&gt;result_docnum&lt;/span&gt;&lt;/span&gt;" style="text;html=1;align=center;verticalAlign=middle;resizable=0;points=[];autosize=1;strokeColor=none;fillColor=none;" vertex="1" parent="1">
          <mxGeometry x="1040" y="1378" width="170" height="30" as="geometry" />
        </mxCell>
        <mxCell id="Botwioph3PDkmJ7A7z9F-6" value="&lt;div&gt;standarts&lt;/div&gt;" style="rounded=0;whiteSpace=wrap;html=1;" vertex="1" parent="1">
          <mxGeometry x="110" y="2320" width="120" height="50" as="geometry" />
        </mxCell>
        <mxCell id="Botwioph3PDkmJ7A7z9F-8" value="protocols" style="rounded=0;whiteSpace=wrap;html=1;" vertex="1" parent="1">
          <mxGeometry x="998.38" y="2590" width="177.75" height="50" as="geometry" />
        </mxCell>
        <mxCell id="Botwioph3PDkmJ7A7z9F-10" style="edgeStyle=orthogonalEdgeStyle;rounded=0;orthogonalLoop=1;jettySize=auto;html=1;entryX=0.5;entryY=0;entryDx=0;entryDy=0;exitX=0.979;exitY=0.396;exitDx=0;exitDy=0;exitPerimeter=0;" edge="1" parent="1" target="Botwioph3PDkmJ7A7z9F-11" source="Botwioph3PDkmJ7A7z9F-1">
          <mxGeometry relative="1" as="geometry">
            <mxPoint x="2415" y="1990" as="sourcePoint" />
          </mxGeometry>
        </mxCell>
        <mxCell id="Botwioph3PDkmJ7A7z9F-11" value="" style="rounded=0;whiteSpace=wrap;html=1;" vertex="1" parent="1">
          <mxGeometry x="1490" y="2150" width="210" height="60" as="geometry" />
        </mxCell>
      </root>
    </mxGraphModel>
  </diagram>
</mxfile>
